<mxfile host="app.diagrams.net" modified="2023-05-18T20:10:54.997Z" agent="Mozilla/5.0 (Windows NT 10.0; Win64; x64) AppleWebKit/537.36 (KHTML, like Gecko) Chrome/113.0.0.0 Safari/537.36" etag="W22uycQscUP0crtilEQ9" version="21.3.2" type="github">
  <diagram id="on0IHcnFLg9VLFZubDcr" name="Page-1">
    <mxGraphModel dx="1036" dy="533" grid="1" gridSize="10" guides="1" tooltips="1" connect="1" arrows="1" fold="1" page="1" pageScale="1" pageWidth="827" pageHeight="1169" math="0" shadow="0">
      <root>
        <mxCell id="0" />
        <mxCell id="1" parent="0" />
        <mxCell id="_9Qq8a92rPDYBwV9_wCr-1" value="TARGET" style="swimlane;whiteSpace=wrap;html=1;" parent="1" vertex="1">
          <mxGeometry x="1150" y="30" width="550" height="710" as="geometry">
            <mxRectangle x="1150" y="30" width="140" height="30" as="alternateBounds" />
          </mxGeometry>
        </mxCell>
        <mxCell id="QxBZrPTcEq7WMmQDg-Kl-46" value="" style="group" parent="_9Qq8a92rPDYBwV9_wCr-1" vertex="1" connectable="0">
          <mxGeometry x="95" y="50" width="350" height="580" as="geometry" />
        </mxCell>
        <mxCell id="QxBZrPTcEq7WMmQDg-Kl-13" value="" style="rounded=0;whiteSpace=wrap;html=1;" parent="QxBZrPTcEq7WMmQDg-Kl-46" vertex="1">
          <mxGeometry width="350" height="580" as="geometry" />
        </mxCell>
        <mxCell id="QxBZrPTcEq7WMmQDg-Kl-14" value="&lt;b&gt;&lt;font style=&quot;font-size: 15px&quot;&gt;Target Services&lt;/font&gt;&lt;/b&gt;" style="text;html=1;strokeColor=none;fillColor=none;align=center;verticalAlign=middle;whiteSpace=wrap;rounded=0;" parent="QxBZrPTcEq7WMmQDg-Kl-46" vertex="1">
          <mxGeometry x="65" y="30" width="180" height="30" as="geometry" />
        </mxCell>
        <mxCell id="QxBZrPTcEq7WMmQDg-Kl-15" value="GLUE" style="outlineConnect=0;dashed=0;verticalLabelPosition=bottom;verticalAlign=top;align=center;html=1;shape=mxgraph.aws3.glue;fillColor=#F58534;gradientColor=none;fontSize=15;" parent="QxBZrPTcEq7WMmQDg-Kl-46" vertex="1">
          <mxGeometry x="25" y="90" width="40" height="50" as="geometry" />
        </mxCell>
        <mxCell id="QxBZrPTcEq7WMmQDg-Kl-16" value="EMR (PySpark)" style="outlineConnect=0;dashed=0;verticalLabelPosition=bottom;verticalAlign=top;align=center;html=1;shape=mxgraph.aws3.emr_cluster;fillColor=#F58534;gradientColor=none;fontSize=15;" parent="QxBZrPTcEq7WMmQDg-Kl-46" vertex="1">
          <mxGeometry x="115" y="87" width="50" height="53" as="geometry" />
        </mxCell>
        <mxCell id="QxBZrPTcEq7WMmQDg-Kl-17" value="STEP FUNCTIONS" style="sketch=0;points=[[0,0,0],[0.25,0,0],[0.5,0,0],[0.75,0,0],[1,0,0],[0,1,0],[0.25,1,0],[0.5,1,0],[0.75,1,0],[1,1,0],[0,0.25,0],[0,0.5,0],[0,0.75,0],[1,0.25,0],[1,0.5,0],[1,0.75,0]];outlineConnect=0;fontColor=#232F3E;gradientColor=#FF4F8B;gradientDirection=north;fillColor=#BC1356;strokeColor=#ffffff;dashed=0;verticalLabelPosition=bottom;verticalAlign=top;align=center;html=1;fontSize=12;fontStyle=0;aspect=fixed;shape=mxgraph.aws4.resourceIcon;resIcon=mxgraph.aws4.step_functions;" parent="QxBZrPTcEq7WMmQDg-Kl-46" vertex="1">
          <mxGeometry x="225" y="90" width="50" height="50" as="geometry" />
        </mxCell>
        <mxCell id="QxBZrPTcEq7WMmQDg-Kl-19" value="LAMBDA &lt;br&gt;(Python)" style="sketch=0;points=[[0,0,0],[0.25,0,0],[0.5,0,0],[0.75,0,0],[1,0,0],[0,1,0],[0.25,1,0],[0.5,1,0],[0.75,1,0],[1,1,0],[0,0.25,0],[0,0.5,0],[0,0.75,0],[1,0.25,0],[1,0.5,0],[1,0.75,0]];outlineConnect=0;fontColor=#232F3E;gradientColor=#F78E04;gradientDirection=north;fillColor=#D05C17;strokeColor=#ffffff;dashed=0;verticalLabelPosition=bottom;verticalAlign=top;align=center;html=1;fontSize=12;fontStyle=0;aspect=fixed;shape=mxgraph.aws4.resourceIcon;resIcon=mxgraph.aws4.lambda;" parent="QxBZrPTcEq7WMmQDg-Kl-46" vertex="1">
          <mxGeometry x="25" y="255" width="40" height="40" as="geometry" />
        </mxCell>
        <mxCell id="QxBZrPTcEq7WMmQDg-Kl-20" value="" style="sketch=0;points=[[0,0,0],[0.25,0,0],[0.5,0,0],[0.75,0,0],[1,0,0],[0,1,0],[0.25,1,0],[0.5,1,0],[0.75,1,0],[1,1,0],[0,0.25,0],[0,0.5,0],[0,0.75,0],[1,0.25,0],[1,0.5,0],[1,0.75,0]];outlineConnect=0;fontColor=#232F3E;gradientColor=#945DF2;gradientDirection=north;fillColor=#5A30B5;strokeColor=#ffffff;dashed=0;verticalLabelPosition=bottom;verticalAlign=top;align=center;html=1;fontSize=12;fontStyle=0;aspect=fixed;shape=mxgraph.aws4.resourceIcon;resIcon=mxgraph.aws4.redshift;" parent="QxBZrPTcEq7WMmQDg-Kl-46" vertex="1">
          <mxGeometry x="15" y="170" width="60" height="60" as="geometry" />
        </mxCell>
        <mxCell id="QxBZrPTcEq7WMmQDg-Kl-21" value="" style="outlineConnect=0;dashed=0;verticalLabelPosition=bottom;verticalAlign=top;align=center;html=1;shape=mxgraph.aws3.quicksight;fillColor=#00B7F4;gradientColor=none;fontSize=15;" parent="QxBZrPTcEq7WMmQDg-Kl-46" vertex="1">
          <mxGeometry x="85" y="170" width="60" height="60" as="geometry" />
        </mxCell>
        <mxCell id="QxBZrPTcEq7WMmQDg-Kl-22" value="AIRFLOW" style="sketch=0;points=[[0,0,0],[0.25,0,0],[0.5,0,0],[0.75,0,0],[1,0,0],[0,1,0],[0.25,1,0],[0.5,1,0],[0.75,1,0],[1,1,0],[0,0.25,0],[0,0.5,0],[0,0.75,0],[1,0.25,0],[1,0.5,0],[1,0.75,0]];outlineConnect=0;fontColor=#232F3E;gradientColor=#FF4F8B;gradientDirection=north;fillColor=#BC1356;strokeColor=#ffffff;dashed=0;verticalLabelPosition=bottom;verticalAlign=top;align=center;html=1;fontSize=12;fontStyle=0;aspect=fixed;shape=mxgraph.aws4.resourceIcon;resIcon=mxgraph.aws4.managed_workflows_for_apache_airflow;" parent="QxBZrPTcEq7WMmQDg-Kl-46" vertex="1">
          <mxGeometry x="245" y="170" width="60" height="60" as="geometry" />
        </mxCell>
        <mxCell id="QxBZrPTcEq7WMmQDg-Kl-23" value="BATCH JOBS" style="sketch=0;points=[[0,0,0],[0.25,0,0],[0.5,0,0],[0.75,0,0],[1,0,0],[0,1,0],[0.25,1,0],[0.5,1,0],[0.75,1,0],[1,1,0],[0,0.25,0],[0,0.5,0],[0,0.75,0],[1,0.25,0],[1,0.5,0],[1,0.75,0]];outlineConnect=0;fontColor=#232F3E;gradientColor=#F78E04;gradientDirection=north;fillColor=#D05C17;strokeColor=#ffffff;dashed=0;verticalLabelPosition=bottom;verticalAlign=top;align=center;html=1;fontSize=12;fontStyle=0;aspect=fixed;shape=mxgraph.aws4.resourceIcon;resIcon=mxgraph.aws4.batch;" parent="QxBZrPTcEq7WMmQDg-Kl-46" vertex="1">
          <mxGeometry x="175" y="170" width="40" height="40" as="geometry" />
        </mxCell>
        <mxCell id="QxBZrPTcEq7WMmQDg-Kl-25" value="" style="shape=image;verticalLabelPosition=bottom;labelBackgroundColor=default;verticalAlign=top;aspect=fixed;imageAspect=0;image=data:image/png,iVBORw0KGgoAAAANSUhEUgAAAa8AAAB1CAMAAADOZ57OAAAAw1BMVEX///8ner644fOR1fFOi8lpwusAbrn2+fwvgsIgd70Ocrvq9/4AcLolbqccdrys3fLb5fGlxOGfvNxIisWzzeZYlst3p9NUpdhWr9/t+P90rthpnc6Qste50ujT4vAvfcDI5veAxOei2PHR7PiNueCArdbG2uxPkcng8vo4e7aXutyUzesZZqK/5PTc8PnP6/cAZrYtd64+jsJ0uNx8sttgu+hgnM97weU8iLwmdLNRo9Fgqdjm7fY+i75RmNFToNWcyuccHkpkAAANi0lEQVR4nO2dfWPaOBLGcdJiyyFKiIGU8uK8FJywDcm217S79W3v+3+qswFLM9JINkSE3kXPn8QIST/NaDSSnFbLy8vLy8vLy8vLy8vLy8vLy8vLy8vrN1B4crdc3j7eLpd3J+GhK+Nl08ny8eEI6+FqeXLoankRCu+ujkx6WHpD+710p9qVhuzu0FX0qhTe1sBa69Yb2e+g8LERrVKPntih1dC2hI0dur5vXCdb0Try89hBtYUrlPJO8VDa2rg28guyg2i5Iy4/ix1E5uVxva4OXfm3p7oFsl0PfhJ7VYUvw+WBva5ejMsDe1XpuB5P6rX0wA4jNdR4WIaNNERffDh0M96KlFXy1UkzWqXQku3x0A15G8Ju7XbYENVwLWhiy0M35S1oiOetYYOJa6WrjeC3h4duzBsQjjWa0pK84Pf9FLZ3LY8epApv2FSC1xX6vruKhW8r3gybtff8I9ID1tHD4+1aWgh59KnSv2ABUxdVnywGWZKmSTYa93IHBf7mOu+NR0V7o6w/uJjUTClZzKXiy2OsG8Hn+Nt7rG/vKkWwhKxmlHSDaKX0wvBA2MvaccwZCwLGigLb0YJsQphFdgVz8PQkoB7Jnmc9wwB7Tu2lpzPw8Dkjnkj6s4t5vc1MZ0GnbG7V3k7WtXyp1wmAUkzrDNjT8Xsjr3cpKCLu2qvXjTfP0bzCBYtZgFQ0YkYQCxPlOVUdyKsXU48UHRTHwYxC1uf20jni1SGeWPV+nPWsyKaFvajf4/HM9J0wgo3mP6FpnSH/Z+MVwV+L7AZt5zWJyH7laU+veh2vuJ7XpnQ+0p1uv6b0el6b/ogjkydptfKROjg3VQ8Mo76LmhFRjrABr3fot8zVg79IPjbmhl5i8Ux91h0vcjy44lVWJDmn+2IeGY04HlAmhtvMP1KOsAkvbGBWB2DhFQ4snRo/75FXMR7U6jjkFbCAnCS7ptG5Kr9PBFoT0rwIWjW8sIHpvqsRLyuucsTtkVfRP3NcvEteNLCFvUo80SeWvm5eNySto6MbKy8YcbBkN14IF1+FrWgu7mCf7pgXS/fIq3A6mrX02vDvsd5ernqU1jkqMrHQquMFHWLAbWswI68L0KMxH/Tm0+m8N+BgQmZoGpC84g6ppwnFC4bpQRt0kFKhfk3pbWjukldbqgN7X/UOrSnAxdvJYrJqbxHby/ZqofYC4fyqBxmNeWGHON6B1xT0XAQ8ak9GjHjASV5zOuWZw3m04sVx3eYzOR6wgVW84p4hoQpLF7wiUL/zyTiVYzDGgxgE5kUsBYxv2pffaSseEQXzqY1WDa/7vyCvICZJrWXiJb2bGhpJP4k8nODFmqRUDLyK/hGd0EYuS/CatOpF8VpJhhQcG9hMDE+eKdHjJDV8Z4pcdGFfRmdo53V/eopwqWMJt4DmJSMf3ToHVduQgTni1ZpWv4xGgyNeranoFBQ2S28Sj/TSBLAYDaEuiv5Zttv8VdBScAXcsgQz8BKjXF9otVqZGFhgKLriBTwf+enLeMkVLprVR2II9oni5mIILeDHGQ6B+Pcd4sOSloorYFQllPpjXqKGjMo/zgVMUH9nvMZ8n7zyKhSDxQvPZsgGzYJ0LdQbyuKa/WNbf5G8VrQ0XNYJjOYlXB7tSqvOY5n8zBmvKjDdDy9REHQ6YvbidOlhXgn+iLYkuTZmowhe7ze0Tv9SiymWSuYupHlV7eW6Ny/Ve4o3kg1wxqvqvL3MX3IoggVbWNkcHH+NmyDEfhmzvUdHZ6p5/Tg14rKlOEhewh125uSXwmkl6R9c8QqrtX4bfeyelwz2RLTRqPBKCz3ZeH0MdGbh9eHHZwsuahRXInmJ1AzRXpNc8aqmfiWdsE9/WPU8I1JOZo00XkzZrrwx8Pr7z9NTG66A0W6tFMlrVLWJCA5NcsIrnPcNM6crXkMi3niumqsmPawi8m/KfiV0i2cULQMuOspbi+Ilut6eKsaS+Y3FhFIPLUMrXmwEHlkMErmeVYaKMItPZOkT5LibxPNgWFUemNfs7WLBHG1V5k8VmHCLG17f/v7zs8RFhIabem/Hyx4d0gL5Q1JtFNCIyZqBR7jc0NDyeyJ/yMnSOyipbVkvi16WkXtYfWQJywjB/LCQzmvjFle8vn1BtIy4ArYdr6oqnS38eV1+Hg/emv1Kpk1rNfl5vMQ08ppSuaVcfIbSF/P+SBeweoqXOoNJt1jw+vbvU0Dr/v7e3Jz2VrxEc9umbxFyyIsN9A1gB7zCyUjus4D0hggPU8Sr12aaeF90ZE7aV/ydBFYg+/Bjxeg+oXe9sDpb8RIpvAPxSseueAXP/UpZCjdU4MJS8MKbYlQVwc/QvPSQo+KVvdP0/8KrmKP6KrEdeQHbQI9DNJIXcv+78RJZKSXquPm1R14H9ofl0+qJpB15GYRyJyZ/WMPL8Bvy1A2cv85uLnUDc8XrhfEG45QM8SEHe8TlsVTZpRhY3156jDJJdedtcJpQxBvBNrzo+LBQek3gKnhdbsFru3gjFOmoneL50YAU6iOxXh7k50KT3qd+KuaYDnKJIsXcp0tHAaWdF49wls0Qz9fxMv3G6iAH8oWlbn5d/tOcV7AdL5ED2CKfJvMbhtN9SMZ81LnIlWMXt1t+g6IVDFSvUfUbNukePDJO1Cky/sKljqvkpRmYmdd262WZoLGd/FDkLD8vMhBtaAaueLGROfbE+Sh4F/IurXjJjsyMMyr7jn1hxUsNOYy8tsxHiS1D+1E4LGe8ZMYXpqR25CXmRjH9aafSZHqbJaZuyjffhsuAgZ6fr5RquFa81JDDyMuSyCR5TXaYwNzxqpYTaJTtmO8NN6enhsIa8J7+SnORf6O3j+QTcAhdmENcudUs9EfJ61dTXlvup4Riv5JO0OdZJelc3PESkVf6cl7yI2kNmkMMqekJidrznliWJJug/kzhpYQcRl7b7lfKvR1GXs/rxpv0TOp+v7IlI6/YIS/h46lNZOHamMHAquNHHdAduTVFcw18oeR12YxXh+z1lWheYuzQBwIqNPCv7ngNhXW75CXXG/pxMeEQDZdDeuQEZ8FVnm5DuCpe/zTixcxNM5xnE0VR9/1EBAf9vTteYrC49IcAinKMsJSY3cjxmYsNMjT36RvMQPHX1S6KyguFHCZelu1lEy95FpJpvpQeje54iYIcxBvwU3kKSosRwfFYPTQLs+qLndoEiBD/iN/zcL3GBUMOc7hh2Tc1nceWZ8PVgAq0Df7FGS95fPjl8TziNRQd1NbG4LM0vr6ynJ6KW3xKmF0F+aTYM+L1cP3hg2Jgluyh5U6/iddcDp44AQTygcib4cOVcn54SX5jCO5TdMj1sinkhjLsV05E1bnaIyB8ZDG8UJ+DGxjqfQdbhptlRyqvDbENLstXbaecjPeJZhIYi5Pu9DzP82m3z2XDOmiU1t7/QqNTzuAwCdiPwO12vFivu/+FGmnaX5bHrrUZAl705+y5V7T35Hzay0B7tam8a3GILDnTea2IrUIOYzIrqDlGYuQVwhv5LOZplKYc3hhV2lzPCz4vz2/ALDvapGqT50WN/dOE11C6cs0jzmDnF8OmbC96N4J+tD63JGyD6IbiVRKzZ3pNa6g6Xq08sb5CgSvJm93syyzlokUdr6AJL3A6Sr9g+WxtrtbeUtYI0cCrIGbHpUdDzXjZgXH1ZoBjXuq9GCf2ZQ/cR9Z4LyFG/dzSQfF/TLy+2Fui3txuzKsVPhtboN++dsqLaXGjI17yjh3Xcz4L8wsC4hG5dWvO0Qf8E83ri+mQaNUQe47d/r6UC+1tL+syqVWKO14cRaRrufGHrdZYeMRU929T+vUwAe/oSeKVJuaNG7wAq3h9sZ06XKnmjG7N+4jyUUcjxtsZYbJueJVvJGqPiOId2RdMS1HzRFd7/VLZ3mdjBGDZBMtuzs4UXl+sh0TXXzPu6ax18bS+Pf9kGEGtfJy2xbmK1QueqO4sk9xtu55QfPhEPZKmyWg8ISuc1ZTeDsDD51XpRCJuLitEjuRef/N2s1V7Oe+kM8uCcm4xsGyzAbbhdfnDdmS+Uu36Uuyhmh+ZLgZZVF4vjIzd2cL7sbQaPFxfzSalWxtV+2vDyXiUrG5URtlgMbWPd8uupbwPdnNz9v1H3RnsNWRL6nAbbV4P/GZeWblpbn17c1sMDa4/fP1svZEi9AZeL3lY2ZIcAFjFy06r5uVsXg6U2Szsq8KrJpbf5j6u127KU1va9zviVeMNtzmf67WrbAc5xJ3mNS87rq2uT3vtLMtJqWJZvgZ2/bnWvIiTW1570cwGLJK87Li2uj3t9QKFtlTxGljJqwbXm1ksHV52YMmal9Ubxn2P6zVlA8Z/HR//YTeveORxva6sL6f+WfCymRfxFj+vPWtsucRUALOZF/XSQq99axKYMx380nzChhveCue1Z+V9s08050Bi6s32Xq+iC1bzb14I41r4SONwOu/T/4HFZHX6iyu8XleTxPZvPTAtnmzxQjWv/SjsRo1sjMWR7T+Leb2eegl9rgyIx4n9P5F5vaam5Sklk5Ux3mFjF/+o0suhpossRm/sWaMqPsvGTS7ZeL26wnl5soy3q1d2xuWBqwb/Q9PrcAqHeT5fK8/fzgEzLy8vLy8vLy8vLy8vLy8vL6//Wf0X5ieAiuzjpGoAAAAASUVORK5CYII=;" parent="QxBZrPTcEq7WMmQDg-Kl-46" vertex="1">
          <mxGeometry x="205" y="446.28999999999996" width="124.19" height="33.71" as="geometry" />
        </mxCell>
        <mxCell id="QxBZrPTcEq7WMmQDg-Kl-26" value="Data Engineering" style="shape=image;html=1;verticalAlign=top;verticalLabelPosition=bottom;labelBackgroundColor=#ffffff;imageAspect=0;aspect=fixed;image=https://cdn0.iconfinder.com/data/icons/long-shadow-web-icons/512/python-128.png;fontSize=15;" parent="QxBZrPTcEq7WMmQDg-Kl-46" vertex="1">
          <mxGeometry x="115" y="255" width="40" height="40" as="geometry" />
        </mxCell>
        <mxCell id="QxBZrPTcEq7WMmQDg-Kl-27" value="Data Analysis" style="shape=image;html=1;verticalAlign=top;verticalLabelPosition=bottom;labelBackgroundColor=#ffffff;imageAspect=0;aspect=fixed;image=https://cdn0.iconfinder.com/data/icons/long-shadow-web-icons/512/python-128.png;fontSize=15;" parent="QxBZrPTcEq7WMmQDg-Kl-46" vertex="1">
          <mxGeometry x="225" y="255" width="40" height="40" as="geometry" />
        </mxCell>
        <mxCell id="QxBZrPTcEq7WMmQDg-Kl-29" value="LAKE &lt;br&gt;FORMATION" style="sketch=0;points=[[0,0,0],[0.25,0,0],[0.5,0,0],[0.75,0,0],[1,0,0],[0,1,0],[0.25,1,0],[0.5,1,0],[0.75,1,0],[1,1,0],[0,0.25,0],[0,0.5,0],[0,0.75,0],[1,0.25,0],[1,0.5,0],[1,0.75,0]];outlineConnect=0;fontColor=#232F3E;gradientColor=#945DF2;gradientDirection=north;fillColor=#5A30B5;strokeColor=#ffffff;dashed=0;verticalLabelPosition=bottom;verticalAlign=top;align=center;html=1;fontSize=12;fontStyle=0;aspect=fixed;shape=mxgraph.aws4.resourceIcon;resIcon=mxgraph.aws4.lake_formation;" parent="QxBZrPTcEq7WMmQDg-Kl-46" vertex="1">
          <mxGeometry x="25" y="350" width="40" height="40" as="geometry" />
        </mxCell>
        <mxCell id="QxBZrPTcEq7WMmQDg-Kl-30" value="SQS" style="outlineConnect=0;dashed=0;verticalLabelPosition=bottom;verticalAlign=top;align=center;html=1;shape=mxgraph.aws3.sqs;fillColor=#D9A741;gradientColor=none;fontSize=15;" parent="QxBZrPTcEq7WMmQDg-Kl-46" vertex="1">
          <mxGeometry x="101.75" y="340" width="43.25" height="50" as="geometry" />
        </mxCell>
        <mxCell id="QxBZrPTcEq7WMmQDg-Kl-31" value="EC2 (BASH)" style="outlineConnect=0;dashed=0;verticalLabelPosition=bottom;verticalAlign=top;align=center;html=1;shape=mxgraph.aws3.ec2;fillColor=#F58534;gradientColor=none;fontSize=15;" parent="QxBZrPTcEq7WMmQDg-Kl-46" vertex="1">
          <mxGeometry x="185" y="338.5" width="50" height="51.5" as="geometry" />
        </mxCell>
        <mxCell id="QxBZrPTcEq7WMmQDg-Kl-32" value="" style="shape=image;verticalLabelPosition=bottom;labelBackgroundColor=default;verticalAlign=top;aspect=fixed;imageAspect=0;image=data:image/png,iVBORw0KGgoAAAANSUhEUgAAAZgAAAB7CAMAAAB+Qmb/AAAA/FBMVEX///8BNG0GsvkBTIcvWIcANG0ArvkAsPliaI0AIWWRmrEAAFjc4OYAKmcAG2IVLGsALmlyhaO9wc5/gqKvtMP19/gqU4I7RXRPV4AuPHLi5elZX4cABlnF6P0OPnF2e5drh6aw4P16yfumq73v+P4eRnVHUH6A0PtogKPf8v4lTXwiuPl9yvtpbpCP0vvT7P1JdY6in55Jvfrp7PAAJGVedJsDebgAFWCh1/rNzMoFq/FjwvoARH/Kz9lAdJGTkI6WpLu5x886pty0raZ6i5Sp3fxBXY2IjKZxjZ01aJBPwPoDfb0AEWAAAE0tOW+ap74Ca6iBs9FUi6lKX37tMbmAAAARjUlEQVR4nO1d/WObuBkGJ0BwYkydUCdOcl5sN6mbr9Wmc+5S37zbct46X3rb/v//ZYjP95WEEFhOcy7PD7cVCyL08Oj9EkLTavzxcD/61j2owcXAujmvuXmFODctszGouXl1GDUC1Ny8QjxajZqb14gLsxHDMq3B+bfuTo0EY6uRoebmFWHSwDDNx3PvW3eqhqY9mA0aRDe1vfnWuLcYYmpf4FXgmkNMxM3jRc3NN8QNTzIpN7VuvhnOWSND6SZt+uDVbsHLYZSrmNgVeEhanpt/69XMvBwGQl6sQdpwYv3y9+k37Oh3hosc6x/jOtVIMOdZ//ixlsyLYPTUEJmYQDDjtC0JRWvJvAyKaGmYT2nb0EmoJfMSOJ8U0AINTJy7qSWzcYwGRbQEyJonXnUtmQ3jolHgJpOJLDMwabKzlsxmISMXMwstszDU+mctmc1hLCGXhnUDzsh86l8+1pLZFIRZmBTX/DMYydQ8qQKnBMMTDDAwKAVNWRnv13pqU4M7KV6ggcESoyQz/Dx86TvYTsjxggwMVbP55WMv+8l7u1tLRgX4vDC+wAQONm2ToGSGO7s7R5y/400P5p3OUaczP5jWxBXjiceLOXmkmEEGhlmwASXzYTcANfKd5d67dttxbNv2bcdpty/7Xw9qdkTg+WPm41gb4+PIwLAnASvzlRBDS6bp6AGMBLqhu62Zczp8If9tNIlRvfp6dz25fsna7ZgNX8xJKA4kCmxgGMGAWMbbIYLZfYvlMHciQiKk/Dj7p52X0E3yIOHHqxQGVsN8SWImNDFWI+78FfzlGp10waoslUwomEAy2DHzTvSElQwhN7Pn5uZlk4QD1l3lSwTEWC9IDGP4rS+JLYHTlYkMDEcwaSwTuGS7PMn0WywxMTd+q7lp1QQG05qQZ/BL5Uu8LDH3NC9mNmWNwFE8A3AEk9ZlYsHs7n7AkjmyucRE3PgnPC9OHbzAuZ9Ez1M6tuPzCNGLWsm/AmTP4Cg7eB4Sc5Gckz1I9/RJakDXkLNlFlr4jMRHr/BZPMHEkvF2U+ygc3ptI48ZnRib0wPFtwYRODLESAaTs3kfH/limTHCqXtgprAeY/LuLHAwHI30n9fxeu776+T3AfcPVwXtKYPqpJYJw5rgs3LyaqGVSQXDSObYzSWGUOO2NpgtCHpMRH9hJtofwTCN3DU0qFYkK5xtzx7T6JxzaiToQVoPlOFHeslWMVmUTvmCCR0zIJiAGWQ5mnwjk4nG39uYpYmlEgtHi94BSgTTIN4WUExww49a9FgCySDFROdEk30kmOB/q/sVDO4wMcyloxjTpF7D4FqYWDKLD5CYr/C0uZ0/l4XU6O7zptyz4FEKDXcjNDVaFKM9XYQgfsGNdh//6+LiKR71CRmQixShjUkaTSL/jkw41+EBMpLqXANqXV/4nCA8kAYWZWDyVjaHknkLFYMdM88lDrPB8ZozblZzVfeG4FkxIY/x8D2ZmT9DHnsUDAR3HUxuhDvkwkGvbGSGFyShzTj9NTFf6+MBE8PGtaRzzNyZK5gA//qAiMGSuXUNCK5ozjbinQW+Z/R4BcFBOHxXFggAyMyMWltEDsE5eAZB7vJ1SOaXYHjiA0/WOsErBfzoWxzCJ6yB0fJpafy08w5LBmXMjla+7cwcx7F929W53ATh5iZcgNToEyeA2FEuMfd3gxBfGgkxyOS+HDHYueLGxIHDSL/nJxLMvz+/E0hmuhwedeYBOsPmp0vf8TncGIazAWbSKSeYvMMJm0fMg2lFaFQh5kIhMTh9fM1zie7pCKZAMDtCyUB4087y5MxlqNkIM2ToBzcEjciecIhBD5w8MY2bCF/WysMhjNCg5lyVcc7FggmIEVkZCt68v/JZZmYdNTeYYhQuGE3UQDwulphR2oQ0KkFMJjNVxOAhlg2PBMvNrYAXeclEmC7PWhQ1hm4rTgLgvBOZnFliyPL42CvNjL8MMYXPdmmgmYwxJTkQCeYvITE/YMnsiCRDML2d6TQzbbWR5kMWKkZq4BBzB7I1pYjJQlBFxOCZrFF8QtKhXIS8MJJ5WzjIc50SjeFernlzGOQRHI9CjCP/nyXmJjtSSjHWKIOa3t5Txk4KxYIpL5nA1tzaWDSG3Vzz7hAaYKaehI4UIuY6VIyZKobMag9h+gYlJjnEPG6idoZWkslePi9LFuCnmJcKktG05gxpxhCkAI6GGY6kpryRCeqvESXBf637+DknYfZjZGOiAyQXcx95A/dADhxi7kjgKqOYOeg0rKbzjj/m1ydzISOYco5ZgiMHM6Of5DTs/eb7dgTf3pfy30hUmWbNo1gT55KJhY28skbyXy0qIYJmPGLGqEm+nfae7QyzZfZDKz3q22fL9NJZ3yRnMpFgdjJQktmRea47FDN+zmR2sA+yOo4UMXcWyGqMw5TlFU7hJ8lkNMS0EeYQg+u/+cbfOwGddg+zH9rZ8hSj9SY8hBKYplz9TU4w1SSjHaHZzNBbPW6zgJiskRwxkyDMSEfUI4qIiEnCFjNyk5/MOPRP3KtxI8kFkDiFlGeyGf+aHAlwBZqIiMlsKE1MejcxMdj2y9yf0CWDgmEk81nKFCwwM61bbqsKxNwMBsC9ehoMBiExjzdRauwqmYHGUa7s5iEd/ou4CTkanpj+chWcF510lTYZ5GaXZYhJFAOffjbfz4WsYFjJLKSufwgraYZhc+1/BWI4QF7Z5lGGGDg7SpoYacEwkvkgFzCi4rPhciWztcQkUxmsYMuFrPKCqSqZHuynofu8zMzWEpMo5hEMq1zpLZ8WRjCVYpkAQztTTOCYLTlNtpaYRDHQ85XqYxnBVJWMdgwlY7Q5SwBUEWO9EmJ02l1GYYxM3F9KMGySWW6ZRW8feGbGjFNnVkPMw2QyeQ3EwBnCj4hBIysx0ZQTTMVYRtP6LrQye2wDNcS8MHKJ+bp3m2IvNKkeGlmJa4sEw+GFtTJykpmegVswZuxJ20UMC7xyqfjS3JebBIKpbGVuoWQ4tcw/JDGaPDFlFVNaMFUlM18Z4B76zO+IGPdyT4B+s8NP68xPQavCFQYd0PqU/yR48+GbW1FXXINPTBO0OY0Caji0xcZfKBg+L3RdRlYyXXAP+jPzMyRGtHYwgGvPnGPeK2t9F7Q6KTKwx7D1MadB57Y9c1ou/echoEtTYPyhV1ZYjfFEQX+OYKqG/00f3MQ+M6yIGJCbzYFut9l3b/rwncNuUbdOQWMOMfNLp1XYDZTRgO4yaFIljqkimKqSOQC5TGPFTB2YmCKQG7ZP6KRbHzoYMsSkrRlivP6MXYIl7lKZyL9gJUY1wVSry2heF3aWqcqUIyYcetem7Ig6Ynpdeo1PZWKSyB9urUy9fcGgmmCqSua2BQaCSWSWJiZcd4v5VUbMQdsty0uhYlDJX5z293JZEQumYl1maIOB6NK/ViCGLCFYwGuoIqbnF7gfVYg5ly+UlY9hUmKwZN5KrX2ZO2DYfPrXKsToVBFaETHeiegdubLEJFMZ2l5BaP2FghHRUtHKTOFjtE+fUYkYsoYQ+HeKiOn7lbpSoBi01EBYKasuGMbKSEnGg5EM4y/jOEbWR8WVajXEzHEpvJq7zBKD3DJR7L+OYKqF/5dQMXTsjiJ/w3fy4eNxAyvV1BDT1dH1XcfO7Qpcz1g0lVErb/JLZesIhnXMZCRz6gJi6ComIsZfHuWj+YzWEIBKtRJi5ivEy6wv6MrRs3wFk1oCn/+WumCnTLFLVlkynyAxdHBYIonpHbegurJUtRJi9lBNj79yJEWJCib9ekxeVmY9wVSKZcDmJmsRo3lwzwfDSctuKojx9iExbIYCd6REzR8vx8g3/wJeZARTRTKIGOFUVpT278zgU52W3VQQMz+DZoNT0YMoRwz1CiZfMqJNTGUEU0Uyn6RtTBExZGlqNqhpqloFMWA7ieKlumUWY9AZMGo/sqRNPi2SgqkgGWT8hV5ZYaEMis84SyhQQQy6hltwT+UUQ+2LwXubnN4JAOF3SWIKJUONvYfcZVEcU0wMSO+Aa6kgBh29LLhGOcVQeyvyNqlRIRi2LkOP9e3pEHKD5h9h5F9MDNqL6yz5KyqIgU+PyyufQZRUDL2fEJtjFlmY32V5KZTM0PH944ybgywcK8iVvRpiTgsuUZYYahc5Zg8MNYIpzJj1ghjd9e3LmJsOSGKKs8tbRQyYyui0DLMHgxrBFGfMunqYTfLPus1g7JY+GAjGD91aYqBi6B18qV3qRjmclBVMYV1mSdywMNXn73cX6JaZ5ctbSwxSDP2JWLzdkCrBFNZl0gpMyA1aWMYskt1aYpBiwo28IDEwmFEnGFYy2DHzYP9QTviMeRPjOyGG2toGeczCoL8cL0VWZo9fOTeMGTNqW0sMnsrwW+XILVPlknElQ8UyQ/7WvxynbHuJoRQDFzHjVUzrZ8nkJdM7y1GM221Sk9nWEkMrJstlUluVrlmHKScZ3v7y4bDprRnmZmuJoRWTljItvLm60CWrQoywlLnMW29CfIHW/knGzXdETGJmcN5/7TpMKcnM+XNZyk0Q38TcbC0xzFQWmJlrxsAoF0xB9d9z+HMZ4MZehWuQt5YYjmK0MWNgPMUWhicZlO0/FRITjokdvi34XRGj3ZtUzv9OQR2mlGRyHOaMA/c5qv5vLTGcqSzAOTYwKoP+fMlAK9NbiVZnG4bfjVtvLTFcxdAQFi6r8iKWTFcwl5FVW0m7rSWGrxiMzQhGnDE7zP9WhmGcZS+jby0xMooRfa+0umDE4f98lkNMEP63weKy75mYTQlGKJkpszN2MnKtS6isrSVGYirblGBYycCu7HGNjGHYfTRyr5EY7rvMEF6Ztcu52JxghJLhOsyG4VB7nagg5hAsXOPuJIQGFb4TmpW69+DRouVLcDowWqAqW0oxmxOMUDIHDjuXGa6/ztrlPGIWYFWB4RR8S2jqcDdPQKorIhcaUPRRiTKKGW0g6JeRDHxfKblhv8tsbaGCGLTuOG+72vQSDndQF3A7Aqfgc0RL2BhuKV2GGHWVfi4x+ZJ5QznMJHphpwgVxHhg863g/4nnIRhgGWfpoM5hP3TxlvcedGyMFZBXialsE1kygWR2MkmA9WTR3c4WnP6pIAaVfwyf3bAGoAkX2eqtjMQVvIZ4y/tb+J4O8hRKKObOtBoWhkLBiKzMFL3NgqOXDEqIWcDDhsPb4jHG8Ax2Co7dLdpZdSXYj20JnzjDhi1LKObpP//9OcafKfz8w9r4/PkHOmOWlSfhKv8gelGxIXYOMVP8Xqt/cviGi8OujR6WFailHqDNCHWnm3ON/gl8uTlw/6GjUEIx3o8f/xrjI4X/vVOBD2/zJJNt7xP4Shzzoo4YbYnsmaG7OdDx+8ZoXegpkozoGvBP4R1YyxAz7WWYQsx33irB7m6OZA6SxzMw+4u8/qkhZoo//Cz3RrqBvwR1sKpwDR1/g7VkEpOPN/SQqkEmmSRxwYlewHAoIYa8BCgoM/BgMBa+6ZS8BLkG7nHZtD8P088b4QU6ZuH7X4F5YaOXDIqI0Q7LbmthtJgF7nvCr0dzeaEGXwUxGxIMlAwZxmAauxUFFqqI0W5zsqZ5g+qyeRevW4oZg+VWwVQ2NTbESxD+JwM2JbsZOeJIXBkxpZgxeLxEzMhfQ/eZLLQCxbzfGC9AMpe6yLyEUEeMdujocsNKtgnkZ/a9PVtyf7+glcOO/PqK6W3KwhCkkmk6IvMSQiExWqfN+6owy4rRsnPjx4XfkruG73I6u75iNmZhCFLJzAs2MtDKfgrryAZeK0OM5i3b8ee4Rc6u7fcFj0uv7/siZzmEa7eXvAw051NY5XDwQTiw64Yzn4t0AnryG/gOW+HH4zr7oPVvnL8yHZ62Z45j58BxZv7xoqB3B81LsgtU7jXsVfuUt8twgJaftVtVIeZ9GK//GuITwHuMPxWBav8+uU6Jz14Omxm+FlUfvQVonbP19XR+BK+JsDiaS+3jHVxjkXeNr4JrdGBD+acT3KCn9iO7NWr8ofB/WcmeG2WaX9UAAAAASUVORK5CYII=;" parent="QxBZrPTcEq7WMmQDg-Kl-46" vertex="1">
          <mxGeometry x="15" y="433.71" width="153.54" height="46.29" as="geometry" />
        </mxCell>
        <mxCell id="QxBZrPTcEq7WMmQDg-Kl-33" value="" style="sketch=0;points=[[0,0,0],[0.25,0,0],[0.5,0,0],[0.75,0,0],[1,0,0],[0,1,0],[0.25,1,0],[0.5,1,0],[0.75,1,0],[1,1,0],[0,0.25,0],[0,0.5,0],[0,0.75,0],[1,0.25,0],[1,0.5,0],[1,0.75,0]];outlineConnect=0;fontColor=#232F3E;gradientColor=#60A337;gradientDirection=north;fillColor=#277116;strokeColor=#ffffff;dashed=0;verticalLabelPosition=bottom;verticalAlign=top;align=center;html=1;fontSize=12;fontStyle=0;aspect=fixed;shape=mxgraph.aws4.resourceIcon;resIcon=mxgraph.aws4.s3;" parent="QxBZrPTcEq7WMmQDg-Kl-46" vertex="1">
          <mxGeometry x="275" y="340" width="51.5" height="51.5" as="geometry" />
        </mxCell>
        <UserObject label="&lt;font style=&quot;font-size: 27px&quot; color=&quot;#0000ff&quot;&gt;&lt;b&gt;etc. AWS( ~ 19/50)&lt;/b&gt;&lt;/font&gt;" link="https://d1.awsstatic.com/training-and-certification/docs-data-analytics-specialty/AWS-Certified-Data-Analytics-Specialty_Exam-Guide.pdf" id="QxBZrPTcEq7WMmQDg-Kl-42">
          <mxCell style="text;html=1;strokeColor=none;fillColor=none;align=center;verticalAlign=middle;whiteSpace=wrap;rounded=0;fontSize=15;" parent="QxBZrPTcEq7WMmQDg-Kl-46" vertex="1">
            <mxGeometry x="30" y="500" width="280" height="30" as="geometry" />
          </mxCell>
        </UserObject>
        <mxCell id="_9Qq8a92rPDYBwV9_wCr-2" value="SOURCE" style="swimlane;whiteSpace=wrap;html=1;" parent="1" vertex="1">
          <mxGeometry x="20" y="30" width="370" height="290" as="geometry">
            <mxRectangle x="20" y="30" width="90" height="30" as="alternateBounds" />
          </mxGeometry>
        </mxCell>
        <mxCell id="QxBZrPTcEq7WMmQDg-Kl-9" value="" style="group" parent="_9Qq8a92rPDYBwV9_wCr-2" vertex="1" connectable="0">
          <mxGeometry x="20" y="40" width="320" height="230" as="geometry" />
        </mxCell>
        <mxCell id="QxBZrPTcEq7WMmQDg-Kl-2" value="" style="rounded=0;whiteSpace=wrap;html=1;" parent="QxBZrPTcEq7WMmQDg-Kl-9" vertex="1">
          <mxGeometry width="320" height="230" as="geometry" />
        </mxCell>
        <mxCell id="QxBZrPTcEq7WMmQDg-Kl-3" value="" style="shape=image;verticalLabelPosition=bottom;labelBackgroundColor=default;verticalAlign=top;aspect=fixed;imageAspect=0;image=data:image/png,iVBORw0KGgoAAAANSUhEUgAAAPoAAADKCAMAAAC7SK2iAAABKVBMVEX///8jHx8AAADs7O2iAACpHSIZFBShAAAJAACQnKkSCwtnZWXy8vLr6+zi4uIFAAD4+Piura3a3N+2tbWfnp4eGRmmAA2nDxYRCgqoFRuamZmIlaNcWlqnDhWGhYUzMDCTkpJ0cnKmpaUrKChOTEzDw8P37u6sKi6xP0Larq/kxcZ9fHw6NzeOjY3X19e8Y2XQmJneuLnCdHViYGBLSEiosbu3U1bx4eHr1NXMjY7FenyvAAC9vLzMy8vEytDnzMy7XmG0SUzEAADVpKWrJCm6wcivNDjJhofAJSXTKyjJAADAHh7foKCcp7KgmqSdCxmoho3Mr7LGXl/BSkvZhITFOzvGFhTqt7fWXFvIKCbbbGrYHhfWdnXFGRjsnpzRgIDMQ0LiLyjeR0O6HGbTAAAYWUlEQVR4nO1dCVsaSbduioJGaNoSZFMQWURlExHBBXHHJMZ77/fNjDOZXGcm9///iFvnVC/VC6L5kkmazHmekKa76a63z/aeU4UoyncjLJzSvvUYvoVw3KkwS37rYfz9oukpnfH/U996IH+zsCRXuNhMsW87lL9XuKHrlovrP47Fg8J1SdPJH8XiuYenkg4T134Mi9dSTo2jpH4Ai/cFzqEvvMXz2Oa2dSFJM9YvqGiTCSAH+HoyrMlPgC222lO3HDrjXs3CekqIbj2A1AKTWXZ4eDsB1aZ0fBtOpkz8SY4/ubhqZw+Ht7eIjgnsuKklTf2nFlft/8WhT8Rm2MaOwrRwUuePQPf52CLIfx8eHprbSR+UEPsXlNb0C/8zsd6k3I7NPZ0trtqnNHd8ZL5xYg/j2/DCql25zJYo3btG+EzCDvwOaeziqp1jn16qlKo7J9fnOhfcyXQrtocXN8grQ3rcuB5SlNLw5PqIoa1blYsnBCyQDOklfz0/3qGRbLaUpbQwvLu2AgCY/sKqXbmgNw34fz+3u8eRZ0s5eACRveP9Iwhx+gKrnWPPInZ1pCiNZm8vx/HnCjmOn2a5BfzrbIELuAtKAfvFnvG+cX7dn3LckUikABZAp/3e/uhbjvDryR7qfV9tyDsb+zRbyKIFoAmo2/1ec/EewB694TlN7cn79ulQ2bkecQ/YhuhfiAgfGB43G7MuE0i5gDg/zNo7RjvwIHo3xrv9Y0iA2Rx3ATCEPSkHBF6G9E7ZVc/Nt3cqhe0jVbJwCIElEQJA/xfXi2L9U/W8oZ6I7dEN3RFW7fQBBfHfFLjxo/qz/f1FoPgNSpVtipvXKu0be6dT93mjPt3uZ3lSyHL4JaoOd4Pv+k31pIcW36e2rvuqU61Nzvh3lWMK/I/nP1A+oA+67vtqjzs8r2jUfWtfT5Xj2f5UVY/5/8NLfNvY5cqHyEdpP+Bhj94UbpSdktq0d+1yHZvS3KbqheB9pj8obH8PdZ+j29d/40i/uOzSSGGaoxJyntyPja2jn07pjcgA56oMk+0PIepz1d8F2OtvuP6yu/Ke5qlQcOPfp/enZgS4s5OgkEYvAoafVU8CC56rPRKhl1LCbp7+G/57f3V/+pMFi6rej57vqSUe8dWToEY8gI4J+6QpIDRPf+K2/ubx/upX66R9eun32cYxtxme7gLq83elSLYkENAhKB+g/3x1f/WbZMmX/uhG+xf45Oh2IKP9Oc32jnd4sSKUP+0dP/3yy+PTu1+lc44o9TDYo+sLqqrbve0C/2jBJIXBEgrxnTXvIkjWCtn7Nx8+PP3mCF57WSfDa+zucdjI6prqNevzXJeNBJDeX5jGPOrdcPRv3nDoj7LOlZGalez9CDgdpXvI5RkFIny0zXOk6sgTgRDkc4aMehFA/vbtx49/2Hrfy1kdjeYJFbjNQ1Skv55aiFhVQGCkSfekN/cc+tNbLh/f/a+Bd6TmxBnnHHc2SyX+vk+psTWaZiNZ3zTwHctISlzHp2+ePjz9/u7jp09v3z4a4IcFygP46JjHsxLd7klRgJd+tifc0UhpGqwU36BWDOvT7C/vn94p7I+PHzn2D09XfzJuFYWhsn/JwwClJ84kNs3dSO/4ibmbYGFXc8bGZZYTuZ8ff4NtDv7thw9v7k93p4XCMEsLJbrjjmP9LHXQ28Z2KbcdKOyGv7LtEsSsp8c/xO4/Pj5+ePOmgBmPJ3xvjbpLS3uuXRc0t/O1h/sl5QahN7heeYIfXb2zMP5xxaEjz41ce5U5UiPUs/eOZi++5li/sEwB+oiWckBK3j8+2Uca9wZ0HytmuYij1jXkWrVq3gDIzQ0gz4ro/Mvjz9aB94+m1rNejn6Zy/qS131V9Xki36nQHSDpF7h9dHVlElLD1wtQlkekBpaQO1rwtC+F7Ks0MCW82ufIDQ3++fSX2HjPI/zT05s3uR2G1ZnqLN2aNDIT4L4aFGrToLxuM/yTnYoi/ddPHz89vvv5/X0BSrZ9ULzDhUcc+exyZVcNSAF/xGGYQ+2d3sOe/3v3CXns45tTPNK4pE7svFg5917JkmM1GCa/S+3e3CmH2vj93adP737ng//p/n5oHOipEfsBKcOSXyhjo+bucX+4zevZaTCi/EkpcmNg753+ory/enz77jfMc1dv7q2sds5rchPvMXVFvVGz17+ECl5Vb/rXwZmWhvQl5tsYLf351+OHd3+hMR9dvTmVchpnqUZka6o28kYTlySg7NztBqtPNcLkhcXZSbZwf/94b7Qp7u9PndFqSAvbCoRFgbxx3sOFOLyMpTf9gKFG6dGTbcxezQb35/vT98b+358e/3Sdygs7ngO3ec0y2u3fwNw7zDxfBnbhwbYK8LnVU16i0b7p3O+vnn7ynHtM6dFedriHSy5gwcGwF0Blm3KkXvDXxhTqs9yOFaCOru5/8Tn7pJTNRWCuHdcZBBg2SN+oQaAXbfcdGo/3Tx4rbt5FjI51sLVtSEP0KUY3GOctPH/dnzoz1AhWlpZgepVOj59jM8GRY+Qpu+jrkdyFsffPUwfyc9GjB3X39wMa0jwi2uh7vGItFBo8ygtcu6d2QsfZ9BJOS10ugJXbcsKVPuKEZh/KlHMqFhUcWcgbu0NYQ4GTkQuxesiWkbrNyyy1xwrIUYdZmERoGMgRN5r59HiR1C3kkh6dqNORciMmjc4psLVtKEeZwM2j2nB3xLTF0rgCdfjFENYITc3lUwVOby6yDaWJq2VKxsQaC4cXbX0844V6gZvyjmqWmHeqcrfdvAP/5rj7RqHGoS/aGvGLEk4Q2si5GfT44yiBnZ/YBfniQd+llFdgbCotDO1lS2JJ3L7DwhcN+kiFL4E07H7j0QnNQjwf7nKg4aQEnkNfqDh3A32HkdlvYddTbuglOr1uMA10rCVtuAsG/QIy+b4qaPtRn0d0WAAI7zTDvDVL8YsFvQcefqduA3PdBYVn6aXRdTKhw3fbBeKFgt5U+0pjB0r10R0qPHts1SuancWZsHptgaCP1KHSpDzAHV2gh1/+SzqoyQQGrV5bHE7ToJdKX42Mzndg1Rc9GWkyU3Xh1JJscaCz3OV+jnPUKVh6pJd0Kdpj3Rz5okDfLl3SwvQS1ogMm5jKmAzXA50tDPQp9N2xxdYfmeYt8TXmpm78jAWBvlNC5Fl6DInNyFuS2l3QGY9zCwJdIKe0h1CtysRK5tKWYqb2xYCOyGnO5O02WbFMXoZpELpFgM6mHHnWAi6Xo1Y/wjZ9i8YvAKVpbOci2WzPNmiZoRrYLVfXkhaHDz70Ro5H9V5Yk4O55NfCrA1X18JJm+YEHvqIZmH5twTXVZYgdvgH9C3s4HfBht5U1b2G272dKRwQYxZ3QQ049Gv1EktzzcbrRcTCQlzxPNjQT1S7Gg+7tyxhfsAD3pvbsdZ0WoCZW5dM89d5oKE39nw6y2EnINPWw95iJcDNaHYr/XVYU9kOpZsKF/nNbQ/BhR4+dPwlsbBVq5ktOBM3s6oYTt0l8IGdeNIfnH9VSWA2M7fl4Mw4Zpwlgw8qhdeXJs4daM7Coe3AxsxDNkYWdAqfXD907wq7ZDZh5ejhYDDTura+7hk188ftH864Yfjk/yDI0rr3z6cxX9zKTMMOJvTD9QfXHrd7y4d8IQZU6/r6uvz33llY15OWxj1n+yldC2pnbmnJVno4NYE/EK5rjPlj9yqdiZnmIEa5ybrh6Sx1e3h4eztJIQaDrPpMNDieBjOn2IMIfX0Jwnty8rC+tHQ4MX8DAO3ai92pdGa3p4JIY1MceupwfX39YSIxWaabLTinluW3XOH2oooguvrt0tLS+uHE9cMWKd2uWWXu5qT0AV9NAsg9O+2/iiyinbnfhOv1hCBC5x7uoXLJSVeeV7RgCaWzsDf8BdHVEbqLy7Hbiey3mmX08L/mAzyYrg4Gv+SqXW5vXT8EYKCdTfECae/K4ZLb4ieHE/dJmtGc8Sd4AbV3zmg49ltpR/Lh1nuW3ZPzvUgg7V1hAF0m8Q8P3pLFNPVZAANp7yKxLy1Zbw/X3Rzdwj1b74G0d0PtVqRLrTsd3bR0fACzJh8C25FMockLB2eOThWn6FZEDzsalE7VB9TeudwidtT2g235ydRE+lknSdnwozdhxw9eBdTeQQ5N7JN1A58+4dXrRJdKFdeyIQ4/acJngVW6YmK/ZUL1+u3Dw+Ek5arYvOiYpqH2A6x0xbD5JXD05C3Ur65C7rm8HfilghjrlpYmHL73Z3xm6xW60AGde7BFW0Kjd/dmUWYgB4e319UEWYTRL3lb8r5qxThvTMEFW+kg4QeheJejs6RPX5bHd3sK7u8Z3teVlGH1jqJVT3rymrxmLOBBzhYTvG32jp/xE2TOUbAvhtJRoD3LwS+ZiywmZsR30BhL2KIoHUWboOo5reGoUqJZBS13D2yQ8KL9SHHylqN/ODy8Td2mMKhx1L5xfLGUbkhycviAE1GT7jO/Q6x9C6X7a2GOJNc6r4hKLMWrmFsOHSs43/vhWqrPGMgr5KyzYm13N9P8lZDXX6VLau3u6z7CxO/yJo1erHvNaBIeZ0sPKcrGKy/8YlklxLprnST4a6Xy+qu0B/jf1mv1xGs0qU2l2U9ArDA7U7gyWl8Neqy2ZmzqpJ34zKsQvEZVPMWts61XpmTGoE6FFAftG3gC6OnJLWWlmu5+Pa1vmAZeKdY/G/oqvK7gldLj6tb488Izw2dglWwc+mq4+hWh6ySNWxo5k7TO1url4pgfX1E26/zmeqtdTmzhoZXioIVaWa2X61XYsUmKnTWtVYxtbKRZdzW5qYy/0nC/pKwSpdjGrU5eqaGvw4tOyEa1UleUcuWgfbClpEl5bbVONvihA7Kx2eZPKxwjneoGqTFlox4dJCrawSCeOKiybrW6FRToZwRNilQl6NEatkkVZRACuEmCsW+NnPGHMhZH2hlmHZENvppW1rpB4N8culIGsFW+UTMj/JiYDjZAOGY84Di7RGTDLhGaxUMizK1gmGPpra1A/NooQE8TrqTYhgTdCn1G2hrUxbtEmZ9ENgFhlQjNponuhB4YWUWldbiewxL0RM083j6A11pRvGtxisEqhJ/PjV/g3AIDCS50/oLB3YLesrWO0AfGoyiiDWgJDnWFiHI7TZJBhs54cgfntqCneTwTIqBvGjiJQX/KAx7uMLQpByHFRWmCIqtGGEN1ShE+DljPTOgaKQNJOeDY8GfD4/ycIoE0X8VoJ6DbDywQsobQkyJcRwHnGsBIhki7SCCvCy/vEtKuk2UO+4wMEgRDXJ2EijGhe7IJr4yQeusbYPhM0UWKEjxtLGlt3OmkGRBy8/3mpjh1zCmb2NVd66yIMD8W2Sy8tvm1WOc/8o/8I19C2LiTqLfb9URn7NsT09OdSn3QHiQ6ad179GyLywvy2tlqK1EsHrRWz76bJNgtEpKPZrhE84TU3BlK38iT5bg4Hl8mtVX3wPnHCfF5JM6rcBIYi0e5xGOEDL6PcJgg0ZAkZMVxVC+SuHw4lImJVCZdgH9+HvSW6ybpL4vh86Sch7FE88sklofhLTtGtSmGnOHq5hIT44/VHEBfAL0dE1eJxWLxjOcm30jqoNM4SaymxytriWUSdyikSEJ4eNBJn3XPxlXOZmDkGQdvmw+9CI83Suqd6srqRp2QKPkOehkrgI1ULPfttmTogzzibEmxb9zGpyFjnws9jTdJWP2LrcT3YPCgQ7MoEcLsCHSAyqq5UFUFdrsRMxc6mnhH3pP89mHujMPI1GccRIuIe492YX+0bb2fBx1vMvgPR/rFpcM9nWz5H9NcCG05I45MMA9665mbfDupc1ucVWVXIJwT3456BwJ21Hw3D3r7mZt8O6kBOv9DSVTtjEgclY/Ngw4Xiv1Hw/waUp4NvcNjXHRWGKhytUeNht2LoD8/h6mN11qtjeqs2Ncdj9Mvm3QGrlzZWJkxGH28ssJTS/fsjLvfQWamG6JiZw2GIRzDiOdBH2ScydAzXiDS8TgnuPFVe2+63G6X+UBZC8gUH2S5VqvF3P5XCdVqplOyjuDK/EID6XYxzsDhyY9D/DAJKalkazU5Ru1lQn7jgTCe8YtxQg6itsXPg77J7SdTnnWUyUR6OWRdZ4XwEa8oegzZJoe+FsMdzg/zk+IJ8wN5m20Te744n0GjqwgyVla2lI2t7lhoz9es4aHk13wOGPfhh+Odl0EPY5I88D+oR+OCSOcFY7YMDe4QS3Od8Z3RDIeu++RIGKVhUBWkG9GYoOOhmOmOShz9bRM+HY0i9EpLSUNvDoY18MZfiO/PWCkYhenscylNZ9kxFlmSoIsMybTWNhNCa6b5IvRxJR7Kk3qiDF6JmcI5pcV3GUaLyPOkUk2vFtGMls02IUBf5o8/Q9qVRCyjnOlpzskVg8NH8x6QeJ/Zc8VoLpkXQlfaMJa4mxaC8JGHoiEj2nTQBg9s6JlELEQ6oBc9KVQcq8qfBkOIYXxYxeCzKXYn63kpUKFV1TNxse4jhf0F4aptPETcrdR5YVk6Ph86C0XRmD0OVIE0YhvxFrGHDND5g5GCsOaxeGRkoB+RiW39FaM2S0V8maif0Q2woMxHHSkctVrzOdsUiae8oGhlojReLjtTho4pX/I2IH5xoQWEHiKyljG2ylkOHlzChBqT0oPIQGJMArpvLFdaRLQPivLfO3w+wPOb2Q7xklaFkiBG5JXDCgSUZTloM9uYhNYdSh4Tp8UDoUZV4yN0gIOsYpwad1eazkuKKCs9Yq9xuQSesxFzXgSd556oqP1tC2ZenmdfC6G7RuwaFFJt2Ojk/aKAMAiEPluLPLdm8NlYGYh9aa3zHFc3rMsKK6DF+IbjpHTM5FgI3cV/sRCyLd4KcjVvTA5ZXAKgx1x8QJaz2jLqJGQavceEXDLIvCLMGTLOoP/G2obRY5Ry6hVjNo4ToEdd65rOHBafXjYA+5loK2qOL/4cLUVZM1pPxkOdF+Hjr4nwlnQE76gJ7BicVtKyYDYXy1Mk0mSJw3b5x8WzQeZZTK/IknBCf35Jl17DDJQRwxrMz+uZ2quhK9141O4ClOFhx5ZlAbPIW9DloI2ylrdvpZlBDh0nlIk5JBpyQJ83LmQCBiVufUE2JwtDehNDD8+EfEWC7nZRyN/5TbG9GjNJ1Zj4X+gV0JV6NCQH2Gc4PFL8F3J4lyB2TA41r7JAjDUaftCxt2L0SHhsMwaI0PPLHnkNdDxNONicyq0oGcUroTNk9KBZbvCZenXVLWtns6GnLSuHARoeCSQwv5b2yMproEPQNGKlxCm9Ivp2ymdBF7EbnIXHk9ncwR86DCuKBSn3SJPuI7WZ2fx7IXQpsIOz+xJfEEhLMdMdXgudmYnTjsI+YhStbrGSlgRX9/IDSV4K3W7Wibar/7PU5CbNq6ErZvR9rh+M0H3mp9DOx8I+rcbosyTkpdCl89oZV21hCybkTfPdq6FDBosrIjy5WYslM7QOZS4Y4yAjReH2cy2wF0JHXmT0ksRMg58vdpzc+7XQLfIl11cemQUdchrRwMbttgW2wGa1UGdAd992NW8VjaKY9pt96bja1POgz74JfHJWoJsFXUOquxm3gpxilusz5vFmQG8XHTFcd1b8UBWE4mVnH1jD2deY9DWRhLuMdt975k1wc9kZoDSDLcyCDt6WGZSdUaKS9+ajqqGcWdCjZGCrb+wy8XBM0PqOTWi7G1h7xmVVAfR4x5mbN6UYEY+Sou2IW8vSTYQBSY9R3yDlOdAhi2eMaGEKw1l7qV/LViwrmAG9DMhIpbrV7W6tlcUUqqS/cAgL+Tipb6a3ttKrlaio7GMOI03gw8g7RKb/EMxItJXu6vpZte28ieDOsTVwCtZdbZO4yaNmQsco6aaaKSy+SBlmH7Ru9YDEMstzoYMOYtDkzwsVO63mQBTymTw/ZVm0eWHC3XFOwrFWxKDPTuiAT6zLcN/kAI/mcZoBh5CZp3XMiZ7ebAqb2hlEIlZ/zNF6Le8YcIa03T67VXauguEKLLvSyFzorsU4zpusOA/nTfOfDR0jhJdtVRwDjRLzm3czoHc3ovwRiQoqmic1X986ICSesa7Y8uTPIvERCfoZLJ4ybpLJk5B7BmWDLOPRDLe+0KapzCpcxb+50hYzUR4wB3ibDFyH2F+Pw+H4XkdfaeGlMsW1ma2MrU5dLKKJ+n3/T/MT16iqlTIOod7xuQlL49F2per4Srumzfg1Zua9gZDwSmUQqg0qq69ZtDF/+vusjJbzGtbmvsdnfV32uxCcqHkugS+wDIB8xYLwRa4vL2XAHl/AL9XPF01M+f6Q2DGlZjI/JPatHxh79QfGvoFcORP0HPf/ROpX6MoB6LAAAAAASUVORK5CYII=;" parent="QxBZrPTcEq7WMmQDg-Kl-9" vertex="1">
          <mxGeometry x="10" y="110.22" width="90" height="72.72" as="geometry" />
        </mxCell>
        <mxCell id="QxBZrPTcEq7WMmQDg-Kl-4" value="" style="shape=image;verticalLabelPosition=bottom;labelBackgroundColor=default;verticalAlign=top;aspect=fixed;imageAspect=0;image=data:image/png,iVBORw0KGgoAAAANSUhEUgAAAWoAAACLCAMAAAB/aSNCAAABJlBMVEX///8AAAD///3s7e7h4+RnbnNsdHf9///8/PzqKyztKjHpFRv++fbqGR///f/sFh/0j5Hvc2vylovnCQlqamqurq7rAAD63d7zhXzpICOUlJTvVkv0rK30sq/sb2W9vb3Kysp2dnb2ubA1NTXy8vL50Mzyv7mcnJwdHR2AgIDQ0NATExPtAAAZGRmxsbFNTU3qTFBhYWHoLTNGRkZYWFgrKyvynpTlLSn78OXkSET/+vPxKTSHh4cyMjJubm4+Pj773tTqQD7vppvrZGDhal7mdWz0h4HpWFLte37piID5ybvhHyLxqa72jpL4p5f51dPxmZjvcXThMTf76dz/9uLwZGj73c3zBhf9y8XqZmjuvb/tWU/rPDXsjnnsqpf8vKfx/PD10b570cNKAAASaUlEQVR4nO1bi18axxYeV3pn3xvZuLomChJ8Gx+r4aUxCEWC5jY29IptvK35//+Je87sAvuYBdreCD87X2KDzPubM+c1U0IEBAQEBAQEBAQEBAQEBAQEBAQEBAQEBAQEBAQEBAQEBAQEoqDBTwKSRCPfUym1Dym9KK33MZCgT4n9O1Hl5Jg0GHryXr4/KDFNk1eATJvhejHqBwWUplMNhEnpe4SF3E4pG81Mm1q8F6yemJRJJBmmhgOMFoUng0klPmQ5IpAmTauIK0rrHZc84jjAXpqE2yc0g275GzHJEmTWiQx7JZspMvLkkGA2ZgqF0nCKwFdKPUrkEVKDMp+60LS9A5jUxN2WJ5FHWaJxOWC7xKaLg0xyNp4A0kB06BB9FR6aIpMxEvxEQOgodawv6SOK++3DvVEyGIpMIo9Bveic2PewYVSvTXg2vit8cdOXVjsLHLRK9xWfCASVGs21Fq8e1GzUpUG9yAi0kr18uGzoTHUOhpWwFqoVqm80lnk9NhuEfGvChx8LI6ZPKNPSS5tZ3qR+bsH0663mj43JzsZ3hVwzaW1zQbM1iwPD3r+8qlMTdbYpU9JyDEuzklUNw7LthSWmJyLyA7/U2o6rGE4LdjVMtclUONVLVTsxtoY9KnVKVx1Ds/Zfp00edDloYko3Wq7TszQjNilNc65g/FcLH39q3qarsKeCScnGpWO4qqdwoJbLruZ0Kn2NsqypiuepnhqvB1+qmlOSzCjVlNSkTk9Ryoq6Xwg7KRR1PqVyw7ZcVYXyKDxPca5hJ1Y1T/Gc1bTJozE2ab1ta9hJcvY3TV2it5/+/VP7c3Xp+/I4Aai0alsKrlYFnKlRKPiNYlfrVGKOF1LtryJWr4y7otgNRmZIfmRSt/1NdC+XaFjtSyCPetNW/IFjcJXeGsr9as9T1HSqCboWhQcL9kZNTgomfkceaWvp9rJJ25+/G4WT4rFjqwrItOruO3YCKO1e2TNurkmIak3TYvV6mstWat/Hugf1Yfnr9no/h84w8y+61Z7iochbvcTIX7pg0cgmTE7dT6Ua/ItawXZBHmArrUQvTofWJHKbffF6rX65NFVdjUf91lZAJyiacfTx3y8SaD7AQrwy1EA9bDIFono/J+plr5pwhsvKzVERavV7R6OX7QENKjvfdoGyIIiVgshWjjQQRlA8SrMT7/BqE1xqia7a4xTIqlbGU2Np1YXObXxWOuwF0b+2Pm8qq1R+Ek5TJgpsbNhMHTjVbxWe2ZC6DU3DGlZVIrIv1arLU3uPWU3xzspApxksCt1cugQ7AP0/wH9V7UsNzFitvxMSdAbqwXI6dZ0bLcIECyDVI6gmtFt2UXfZ1UKF727CdLod9agQdn+eHpIpV6pIkKIVBrIYARqdX1oOCLJi38KJT6UavBPa0JQzxf0Pqlj2nQzL1JsaHBqrWSkrZ55rL5s0GAgktuCAij3rte8o5caSE1BNpbaFZqDXoWhouT6G7Ntpc6pJEBC6hg0GxXU3IdrjUy1Lpr4GylBRHrrpVLNYTK8aXvlMqfV3DYOH1zaqjv3PoAlQK7v3VAqES6q1DUU5M6oVgqEzb/AJpPqadWs3aiwu5y0BCrB7c7ohDEyufOOBsJXQ5tV4VTA8lGqXBi64BIohjepHcN3MK00tq3atH4RD9a7ioh3oEPrYBvH23C81VEMEGbgHNQw7eIfOtfkXpVpawF6tBQmTUoS/YbjjmO6SpqlAZFguKFKtWYHlpikQVHbfDDBe1iUc8wHVsYAQuDKlF5rqerZOB4ZP+tU+80DNL8FWLimorp1sX1nQNausevsN3BLuiRpPtUTr3o3nug8VP4hPZGGYZkKLJBNzulRTmgWPWrFXxxwtqjdRDWjdkALBLQjNHdmFWi50V5N8GQXGwVVTwWT5cXXJ8bCTeqAza4qLvvBSehA3mmroHtS9Bl0abPviSRnKeOar76cH1dfA53V7XN9jCBCWBnohzm8kJNXoig2TaDrYpA08ItZXKaAavIMH9P+0lv+r9GCAv2Ec+R4I7aLHrC2PyK6OkWqYAOkg1W61+fVr+xUHXx8afL345KD6VwOo9sYZDIm5hB6mIoZUx5N70t2lhXFKiZI+1S3kXi13gxTbPTojilbyR9twoCd7dcS9zhiq8bahieGR4kL04vKgeZWpunhDUP3yBibaHks1uWNU3w4ViP7bxmf4E0KpjNpD8eoDZ+YenERg83dfr4PK/2iD2VSMer8UCjf/MtVMM78y/GyM6sUzCiwu1675buQUEFA9xuOE2d45uOIw1f91IBjH4FfDvxCog4pBt6uEuXh29VSpGmfgHazVguylTCueq5yVrTVMp5J7G6kujLgcGUu1SV+5Hkt/cFJlQLXWoeb0U6c+9DaGct649KIE7iuuOKRAqFSyXfTV4Adjbo+lpjynqWMDoJuSLJ4Exa6Dg+Ff58joxbugQhoECPi8D+rGbhCun8cwmmq8yCJNNn/Y52QOxbadyy7l+9pPD1luWZj+6o7VZyU0i/sbNOzsXduWega+nJ/WU1nQ1nz0uwL+NiAMVcu9Ul+lo8vw+B/sx7V1IKri4Mc1naQOPkaqgWqaxSSKe/Xp02sOPm2Ageb7kU8ODOaQ6tI4Z6/Gwl+jEjKLmI+/ZFlu1Jbw98a1vN9rgXMl0dorAyIWt90t6kWdoQI/dVDoINbLEsj9F8wFavUR92CjqZaBxkIPTpW1HL2NCNWZGaohBECq3cvumIp/ANOq0SYhqcaIoF61IRAHnXDmgeJuZ7sYCfk9k4bDXOq719Xq0RDtB0xPK86m76iBbr9KNxQ+1WmZPZBYidRxv1y1nrR+JpFRHNLPzNMCZOESpaz3kUpyMNmhqzys172BWqBXaSizh7knUlvreWVYq/dHrYbusimxoBO2oQ4+NFi9jvT40FMD10txWYijoH8JrvwdmjRF+01iN8W8W3jqSzW6hGk36h/RgdTamAygUuJqGUL1GfFAZMwHo7XWSo9+7Jc4h/iAQ//qskABwt9YDoTWOvtInqs0qO+1yZK/5qaGySVglF67XyI3WWg9VfsKaoFTrIBPspF2mY3eQwGPncYPzJlYO94ZaqQa5Tw/YMmy2VAgcMgefzU8T3XtZUwjSMlXKzDR+yqGZOr+JkbfEaoxUdSwXexgv6MznwDvVeHrgoOUOgW8qX2xP7yI8nxnxVN64PHW8fpEuVF/l/iPQfC5TQEvLnoFP0iKyzyG42xCZ702ykG8F5zfX3rB9v8HPqf5bFh4K2iVS/XAfEVQvG5pTBdoP0tmIrOH0XnBxVyUZ7eBawmcAhSkOohv2dNaOp7f2sPwdgwv22/QirpHFUxwYxrE1drXXc7Qeq0Ce4ZS3WtIvHK/ThXvFxRDubrjlMIffaoU98HyeQU/kaxobru5trAWwyXuhOJ5xmWFvbeISjWmJ8k31ygDY1q1jglw05TM2gJaPFWrgO6G3bxb3RygcH1duGG5qywx9TUblbd6Y6nN+MCIX3UCLgYGWYl5BWiu0g3YabSNmlHlddIel0t7GoAMAlnXlltmvrGLuQQjAtdljpziYJJIAo1zhSRiCMM6MFlGrXuEtkvBCwZQIbJM/gBv1zuzX1Mm5vF4EDxM1NgOuA21j47LktaKGx3XsizXcn4CBQLeOVBpcKAZmt0Gwa+XtS/QRbkM849VgS9uKtNglg8qXX/pQSyCouHzGglv8ce1W/3kXwd1p7IU0oBgjSrN3hlW0xoSkXVaAXdOKVtNnXIvmah+ZIHStpqgQmq3LthPlxdWKxpGnkB1Yk4DC+s6G6iON9owKQimvPhTENBr1vVMCLUPMGOVrGODxuMkbDDcNjRvU+rfzHZsvB+LPOgArmstG3WI0mOxyTIINQgiSG3K69T6vgc6yynhxcM1PpcpJ8aGUYwuYYnZlIl5nqct480FbFjJtS3e65QzuzUrORAEO+CV27ar8QBbsPBHjQyum5cd+NL4HKYa00tyqWfjgd5v18H7sGxNc7J4rSrzI4iWo9mGZd+jO0+vl6tGr5cYGXYCXYyWxilj6DnodpjsXrLSaJZxYvHZq5UZcfYY8BU7LFhf2myUsgl82lgy/ds5Vpdu4pcvlkKXR9R/BF14wVq/aJBGtoQff0GquQuVaDd7my1lOwX2YopK3Y3N29i4peztL+z24fEae01ODKpcfWM+j8kceb1+v5ropHNPZ+SpL4PMXiqmeaC+OzuIufBFHn4XfrfBLkmDFwfD17boilA+1SyBElwtYNKPn8HAJ5kme+iQlmbFEhYh4vO/tNmnL1xAQEBAQEBAQEBAQECAj9n5H6//CZCm+T+IfHfMkBzNUCrmmUMixcyzR3HaLDNIJPfDv545jnenzTIDJbnjf/3wvHE6I1TLxflnj2dt92cJs+KDsA3nv4Z7Ppg2yQGe/+GakTe/zx4j7iUFBAQEBAS+I6biyzx/B8rHZOvk15LHlP/tGfxTNkHg72JmJWVmJxaBHGCCWumN0zqR0xr2S8aMPK58PpPJzKe1m2SAJ8XB8UuGnfPFTGol+QJqHOei4iOTfNB2gEQSvriDDbd4fW71G6+v5Lljws851uG2Zj1cfNie2z7ZSSZJD8ITO05f19NiZW6INznOWQT5Izm/WI6VLs7FkJAwv+E73sDroXZ7u1zRy/ilGa6GyA2b74xa1NzcbOSr47M652kJQl4O1hzBeKoDPvOcgdcjLXk1yJZftsijOjL24shFzRTV77a3g2mt8+pk3vmFK5FvZXIwt43AIvjn7du3carlOV5DH+vBwP7IH3h7fOq3PuRQ7Qv8Vi7HtmM7JgQrwZRgUtD/LFH9JgNr2V1PES95IEEncV2Mxs0/yXnCM0AHULKHjHJuUtd9gmV5/jRFrDN9scwkqd7B73P4iQ1/EK2Bi3qbCazqzJhFRrUvjWz6x/GZwWRPcDGpRzGXqgDkC5S8E34xUv1m2EGOP7XzQ45+AHN7ONh5GY/ceZLqPb6KnyIGVMP2H/oiFAdK15siyl7C/iDSqJZJBiW6uMPXS0yqGRspHRQ/4Obi/A4Th2L+w1Bt5HO5HEeB7M2K4zFASKp9FXfArbLObNQer4d0qcYmL5kWeZ9ct69AAPP46SQpgNjvNtnlbj+T6rnjtCcePtWz5lf3qR74dAkTxpaVI7tvUxhNp5opHlLk6wckeA/89Ys3Ke132DFisp00q4GPcXJ+MM/RE4zqY+z84uVxUnamhJAC8e1Q4qyjXO1B6SnTiUmkUr0L+uNt0W94mihdnxvilBPyyYFxWOHKfN87wROzlWgdcfZ47s9UEKZ6nkv1eqCkt0KqJoxUqlcCipkDkyArTPXJIl9/oJJmO83scaQOMwF9suOjzzbVqEDiUs3WVtwOmMwEiiDOSqpZfNdviB8WSUxpMqrfvH//njnWxwmty7wX/PAu5TRlVg4HdMb0E6P69PgY/h6fJv2XKSFsFplDF085MOuUy+fzu7jm42QPaVTn+w3zqLMTTiRS/aaIOEjIHiozNA2LuzDscaDAkoIvzy/unDCqP0SLZ9ssIs45AhI56BCMJDUIn2qZ7EQavo17EYxqVpGgdG7L0daxoH83Uui/n2W/FJkE72U4VA+rzwZCunr+3VzSHZ2PLpnjC6ZIdT+a7yN+WtZ9Yex/nItpkDfR1jGPnm1EMFM0kHvR4Grm/WqWVLoICQF+jKeUkhokhepcrOFhrLwv1cR3CmNU78Zax+wx0znB+WNnIlrMqOYlsqcKnNX73Uxmd9HXejFZYE7VOgZkuVyeqQR+ojSf6BgbHgcNz+M6gARUox7Y9TVNdItxWh+C1oshXgPk2eYVB8PHfElGdX62nrIHxnpvby/lmKNvPCCJ+SAJg86nej78LbNxsa7Xg4GDkaMuGQtcBg2w9ctoOXOr361sbfleSGz4/qIYEmuaFqKp3QSP6Ey/7f/CFpjQIHyqF4NT76fW8MQccpy9AS6ihdFwHMV+b5SC2YqZvuiiZpDqd+cJSyJHBW7LVwTRhXETc0Uk93xg/heTGuQiRMZpPtYcHbzjQf4zz5GC3aHd/ICDR5Kl5xGqZyWG2V0McLDLsSNFLBl+P4+/RvYDPeBonVDDTNqviHww7MpiLpNI3B5AyXBnijn4NR+rM5+7ODw5OTncySd18WBRDDNyNTDa6ZQnqPRkbuvM+MffFdGL8kkXLaf+kl4t8uW4J1B/ss/pY+RDjEkq/611pe2cHOV5ook8N/Dv1CesOUHRn6w0vvU/YVMEBAQEBAQEBAQEBAQEBAQEBAQEBAQEBAQEBAQEBAQEBAQEZg3/A0LULzWHF1W+AAAAAElFTkSuQmCC;" parent="QxBZrPTcEq7WMmQDg-Kl-9" vertex="1">
          <mxGeometry x="29.5" y="10" width="261" height="100.22" as="geometry" />
        </mxCell>
        <mxCell id="QxBZrPTcEq7WMmQDg-Kl-5" value="" style="shape=image;verticalLabelPosition=bottom;labelBackgroundColor=default;verticalAlign=top;aspect=fixed;imageAspect=0;image=data:image/png,iVBORw0KGgoAAAANSUhEUgAAASwAAACoCAMAAABt9SM9AAAA/1BMVEX///8AQoEAKnYAKHUAN3wALXf3+PoAOHwAL3gAPn8AQIAAMnoANXu+xtUAOn0wh5qYpr7a3+f/cxFKW47/iQCKmrb/kBBwhKj/onb/dh3/cQXpGzL/j1T/okz/jgD+t5x6ja7nAA3oABeirsT0oKPoACP/plb/qmH63N1Bh50ofpa0vc9CVIpFZJRWZZQAJHTO3uOwy9Jil6rM0t5WmKfh6+5heaEuVYuvucx1qLX/gQDL3OHp7/IAHHGIkbBKaJYeTIb+4tT/nD0AdI7/tnr/lSX/1ML/2swxSYQAFW//kFj/pXukxMyCrrr/tpb+18r/gTr1q67rQlAAAGvvd38wcZh5AAAHHElEQVR4nO2ai1rbNgBG41t8jZOQhgzo1oDHNghJ2hmcdJjFXbcOtrZb177/s0yKr5HkYA+WQPuf7wPLtizJx5IsyWk0AAAAAAAAAAAAAAAAAAAAAAAAAAAAAAAAAAAAAAAAAAAAAAAAAOBz4uJi2yV4RJyebrsEj4h2e9sleERAVg0gqwaQVc6rV6/SYPiC0m4vN2F69AKvx4yfnvySBi9O24Tzc/r/9Hl69PXp6+2U7AHyZPfrNNi8fE5ot+n/y2Z69PQEY4mUgqwYts+CrBzIqgFk1QCyasDLYtw8MFnNRRAE28qckxWGq/sPTdbUdKebzvS7hN3d35LQr6sRfkw4OTlJg5suo4imLEnapjN98k3M7u5uEmJq2AnPpssoYiuyvk8gNSsJMTXrfCuyBqbkjNZF2IqsFK7PYqnRZwWDwV373oFu2V+GrCvXvbpjcQbuY6pZb968+X3lQA1ZiiQpdyzO45L1dH//q5UDkJXDydrZgawyIKsG1WV1u91b0vpcZZ23k9W9wkrpEk5WtlJ6ffbzLYl+9rIKa/BLOFmXl34cOJvcg6zWcBHNgk44upGvhoLzRJbq+f1gHC2GviiBNbL8/mI8Hnih+CxlPljMZoHXGF7JNy32nOd1sqbTITv5qUwWCycr4x5k+ZKhm5ZpqlpkSXpfEIPIklRbN0ksXYsEukpl+ZHmmqbpOtNhSe6eYbs0YceOJMlmZc1sdZoea96o6k1+aiuyvKklEaz4r1RWGkcypx4XoUxWZ2rSy+h1aiS8t0Cz0hiSQNbYzI/RTAp3Uirrj52dP8Vnziaiu6P9foohSUZhl43ZmpJCupoWaZourZFlObIbaQa9+SlXt0pkeQpNUbNVWSV5zAQpD20aQ9Yj2XCry7oghOft58ttGvX9/k7MHiEJ7j9LToYtn9CbDOiGzeRGM1LoE8t2NK6S0fNGQB2GfbtcljWe0wfZDUgcS60mK6TPQRmS22l2NJLLnIvhU5tyn96wH6hVZTWLXwffplGf7e9xZLL8sx5hMpnQzTWTiSaV4DIROw4pYipo5JTKUtO216cXsA1RLGtIqqqS3KrnkLbGxViQiqqk9TQwq8p6STlvv3z37t3b7FPq+/2EpaWETNb1GYHIohtW1lTNoIryPYOJSPp0c5zuVJHViMzCFYX74GVpxfcFqcEa2wc0lWJVriwr5pz5LPHXs4S/9/aepuHVGXVJn9XJIbZUL9/li5uXsJKsucO/MYSyfOJHnfutJf7Mkhy2HbZIm5azTqe2rP/Qwd/pbdgl7VXLiutVkbW8hKkjQlkkNTriSBC9aWnblLK9+5L1vw0d6LsyP+upYlnDoixaZqOKLFqnLbeAPWBiEFnmItsTyVo8Pll9nZFVqWYRWdZsWITpA5ay8u5PJKt4LNTEsg4PDleu4WRNzeTL01nvPpthmayVZmgUO5oYcTNUJVM0tsqh3Z+Z7Y3rybp8kck6WrmGl5Ve1hN38AXWj+DJ2bzf7VSRRRxU7+BZq3yM/FFVkcW+zCm3ylKqrySsl0VKaEXpDmlut8syyWCD/QIiHjrIluQO15aNDC7cLC0qi50bBIWcSZW2bEEim5PVIo/LTTvZKrLGZFois/dUPiiVC0s7/MobjWGkOZLBhcEmTEqU9WokbIma9eZkNWZkEO1K824Ydn3ybPMaVCyyS95aJErX90y3IDdDLKtpkPGCFvikb2letIYG+zIkh+lMw5ktc29ZAlndaTbB8DXB1IHCyWI/WNyfrFA16SzZ0DTNNqVSWZJJoxiqRdVy7+ySiXSXLmiYtqwosmbrOi+r4dMYlqPR3EmIk9UYkHGrE/XnnTFxZUaiO2BlcdyfrEY4M6x87mgIZdl5DEsb8+ObsiWarqrnSasCWQ0/no8laU/5lhqQns/UHfJILVu8ynOfsqamecsPXEYzxVZVXVdtTVmIlvS7gaY5y6mlrcxE68uli3/NIUmaLv/pjhKxr7qYvk7S1pe5O4HARouUznEcWzOZYdq3CccHxx/i0IfVCMkkj7y+s/mesAQFovE4ui3OxajT6fc7o/KPH91Rx/O8zkj8i/J1a/CtTjAeL4bz8t+idz2Sed9rlQ0zwtbcm/NlOzqOOTg4iANH/6xGkJxsKSEOOCabxjbYyqeww6MYIisOHDKyXEVeQtfMliiikcfG2YqsHxKODo7TIFOqmIYsyVn4AdD8KMsft5U528H719erL9UaHfxG2OZT42T1eg9b1jaBrBpAVg0gqwZFWbTrJLJaK50oZOUcHmcrpX36pas3mfToNlsVvdLv+jvRz4dPnz6lwX7yLZX+z2UNhqJZ6RdPSH+gMOr15nS7dpEWxHAdPCgHsmoAWTWArBpwE2lQTjMMH8RSDAAAAAAAAAAAAAAAAAAAAAAAAAAAAAAAAAAAAAAAAAAAAAAAAACAevwLT1PTGoI/NFgAAAAASUVORK5CYII=;" parent="QxBZrPTcEq7WMmQDg-Kl-9" vertex="1">
          <mxGeometry x="110" y="110.22" width="100" height="56" as="geometry" />
        </mxCell>
        <mxCell id="QxBZrPTcEq7WMmQDg-Kl-6" value="" style="shape=image;verticalLabelPosition=bottom;labelBackgroundColor=default;verticalAlign=top;aspect=fixed;imageAspect=0;image=data:image/png,iVBORw0KGgoAAAANSUhEUgAAAcYAAABvCAMAAABB2JCJAAABSlBMVEX////1giBBQELxWiIAV6jvQSMrKiw6OTs0MzU+PT8pJyo1NDbs6+wwLzHNzc31gRuLioulpaXCwsKwsLDf3+D1ewDX19dvbm+fn6D0dwBiYmOYmJm3t7eCgoNQUFF9fH3+8OjvORX09PTxVhnzcCHwTwAjIiXwRwD6wZ8AVazyYCL+9O72izhKSUsAV63n5+f2kkjyYzJcW110c3TxYC0ASKIATKTwUSLwUjr60MbycEf839jyaz/5w7YGAAr9hAz0gF/2moIVExf6y674tqb1l371jXH2pZH718/zeVUzbLKTqs/S3Otghr2svdp/m8jX3+0dYKxJXpeYbXPTekdpZIuucmW8y+GFaX7DdlUAUbPlfjKPa3g7XJzcfD2kb2xaWJGTWHXBV1WEWH60WV/eWjh0WIanWWnSWUWma334rn73nWD4sYT71b6lfc3JAAAPLklEQVR4nO2c+XvbthnHZcoFL1HWZcmWZMmlIjpuIjuV6qxJ21zr3bRptp7runVHd3X7/38d8AIkcZEyJdUS8+CbJ4lEggCID/ECePFSlcpqOj1d8UKjndLe6ZYrYLQJ3T6+s+0qGK2nB/jv6fGh4VhqvXlK/r17cHi63XoYraOHVfjv9qHhWGI9nH4E/58e7xmOpdXDyfQB/XT3wHAsqx5Oqmfs4+3DPcOxnMIUJ0/YZ2xVDcdSClOsTt+Pv2GrajiWUIRi9eyd+CuxqoZj6QQUq5PkO1hVw7FkYhQ/SI+AVTUcS6V3gWI1Xm4QUatqOJZIjGL1LEyPMatqOJZGMcXJQ/4os6qGY0kUU+SWG0SxVTUcS6GEIrfcIEqsquFYAqUUq1PxTGJVDcedF0dx8qF4KrWqhuOOi6NYnb4nnuOsquG40+IpVs/kwA3OqhqOOyyB4uRd+TRvVQ3HnZVAsTr5SD4vWFXDcUclUqxOP1ZSCFZ1exxr9Va9W9tK0bsviWKy8c9JtKob4VgvjKNpeQGWZ7fXLftVlEwx2fjnJFnV9TmGi0cFMXZ8x7VA9mKtol9NyRQlTxyTZFXX5Xjk2agYxk7EIO4yxkvpe6uBdXQTJSsUq2enmmSyVV2Po+NYVkGMFqHo+k7g+P6OYgzHc+lIE9m207+Bot9UKFarunSKVV2Lo2cVxTgMSDecNVv14WDUW7XcX1VN5MgVa/r40bsBjBqKk6falIpVXYdjcYxzlzOmYW7S7ajmOpa7JYy6vshv/HNSreoaHAtjDCNyxWqF3Yy6yNJgdFzX/tUx6ijqlhtEGqu6OsfCGOvBLs9siLqBDqN9A71RS3HySUZqjVVdmWNhjEM8J/JvZMq3qrQYb0JaivrlBpHOqq7KsTBGMsg4wxVKujFtC6OeorTxz0lrVVfkaDBuShkUuThjWVqruhrHlTD6zcLl3KC2gzGT4geZl+it6kocV8O4067UrWDMoqhs/HPKsKqrcBQwdlpYHfIpbC/8yIusMW8+20OsMZ7y2eMhE8+z0+zZkecF/UFXLqVGMq6zL63G3AYnS5gcDZt95HnefMD50DqDOT4WjRp1OTdysn0yIldEs0WbewjrJEdYIs5bsejpS/JRrVd7PAoiNFs0O0oRl8PG3MH3E1mLZlKtcNiq41yUKmVSVDf+OWVY1RU4ChjbkeNEA/xhEDk28Zm6dhCkpJ45WHDcdpieJSfrc8+nvlbXR67UXes4Y4+uUo5QYLsuYOzgDNEciqOXun60YA6FWo9l59poJjV/bWAjx2aF2U7US1p5jnCdfDie1JA2eYvU4ETMp9uLaDau7XujFn8qbM68tAjf68eYO4uw0ehEUiu+lUlRjDOWlGVVi3MUMdLFRDhzrFRBn08ryYtvu49c7rDrWELTw2JzjD9cWpA1XcF1EHwKR1xxtgMNNoxsLreIH4trCwY9vSY53xdPQPVpRVq4DLsh3Po4EqqM5km3Dk/kItwoXmM1Ko3hQswoh2J1qmz8c8q0qoU5ajCG9Cl03Xg3asSl1WOsezZ7cO34EY74tWWMseuxszzGmc2X5pLaNCP6OW5Lj+NYi6ykLFaYhQb0XAGMl7Za5aRDxkW4ahEnFXwfY6ENcyhWp1nLDVCmVS3KUcFoHxGnqY+ced/y6L6iz2r9iGwVU6MaMD2ibQS37TreaNwYj9hViGs0hvGS0bEDalTBa0YGW9+z+vMAUUM+o/nZpAquBybSirjOTVjZgTdbnDTGcy+AwjxKYI5wnahRjWsYG1UJI3ugsDHFucziUuKZQMOGIqzeSeOkj1gR9GQH/6kII2keRT7O+NPPnsutn21VC3JUMJIu4Hp0rhEOXWhZjzZFF6sDdzjodJngONDx3TYd18K27fPPb4oRepfj9QfNYYwRM8Ud8Ahq0O0FkFGDXO6Noa1qA7AB7ijJqzLEcNJ5T4ua5IDWsI7VBi84fCSilZIwXgJF24+r3KSPZ8yxjvBA2or9/qxeSL8PkEuRjzO+un919fkXwqogx6oW46hiJFY0rXDPlxpRXXCE0Pv4zldpIGiUpK0BY4PgsblrASPpfsmttYEZaVGUXNuBSqXfK6Ereh8GpJGd1OxqFxwSRtgzDTjbGAIqL+700hwN6qV3QeZSFJYbV/v7++f3r/ZffJsey7GqhThqMPLQ6L6U5aVWRF3+E6toeZr7tpz4K8HoznG6gHeqU4yuzT3lA2rdBCPaJXnZ0ixTrgA2xUn65RihmGAgpBggoVRRRw6pqOZEPkV+uRESjPsU5aeffUkP5lnVIhw1GD2h31/Cg5hyUzCCSXXEJsHJyMPtx0cJRtIBAmGKRzEiYRFGZzW+kN2JnVhNrUIk1Ho5Rpgl2WMpydGjViVTpPZIXVwuoVh9M01aizFiXdy/ug/2NdeqFuCoYvQlIgsyGKatomAk58UODIJJY7weAYzKBhcdG8XdoyYdVtV0SI6u4UQ4BwmD5RjJ+K7pWzo/A18v1ZW8jCIfZ/wlh5F1ypcvnt99/HgTdlXF6EmuOdIAriXcD4+RbiOr1ghmpQ4ztQyjLyYBPE5LPSZbUFKtIKeRYfMsqdNyjOSmC7r3SabyA76UohBn/FzCSFHe/93vv8IkM1Fek6OCUelYl4jrVipG7TVEC26jlmJ0JN8OIPOk+Z+uiXuugltQN+AHvqUYWwE/bl9PxHBLT1e4lKKw8f/8voqR2Nfz84uvv/khs1Nej6O6blTmEl4uRlj26VzlgC7iPistR42qdBCmkFLnJkYwr/dcCm28FCOsmSRHzFJ58phwZzlFIc74Wz1GivL+y+++P9CjvBZH1YsjW45Kfm909WM/fli91NoCRqXlYPkvRyKOXHUcHCgDU33QmzkoVmAVwkiKCHI6NyviaDHykyKQPLTfqS6lKG78f5GNEezr+XmGfb0OR51PVVI+RrGv8rJSUwgYldGNOeNEAUZpeJYw1hpe4LuS360ARm/JjAkrHASBb8tFcBivQ1GMM16CkdrXfWJfV4gnXxdjDSkTy1hkrsqGQ8Aoj4KrYmzybvMVMIKZUCojpka+rggO45PpcopinPFnSzGCdf3D+Xc/qBzzKku0EYy+fAmITEx8DqMyw18N4wl1GjjIQ7Hf1NkwxmYUF+HFRQSyUX379aUQxTjjF0swXhCz+sfvNZOd7fbGntgb1fDClTC2qc+gP+THY2+jGOtAMRi1O1wiPESIU5y3X3/tN0uGRiHO+MV5LsEfv/vmT4+1S4+bGxu1bTJLZxL64NZVMMIy1fWlYbYQRtiG0s7KmGBMRNIcSMFIOOaDFOOMP9djvLg4f/n1n786yFw8rjhTLYjR1iwQuKxpayXbxoJWwQheHk+enxTDOMtfhsKyEsnzMRUjcMwhKcUZf36hErzY/+kvf731OM+Ts+K6sShGssrX+v7ptCb9vBmMsNmorImKYSS+uxxX+4nofWTSYGQcs0hKccafXogEL378299/nk4nkzcyEV6b4voY26KvTt8am8OIdJ0/LIaR+O5yXkMhNVCdDdphIeaoBSnFGb/kzeg//vmvCSZIE65PcX2MsFugWUzDRCI+vjmM2jUfOOOujxHG1+xYW1e3xiVTOc2rKwlHDUnpB8YuKEFiRquY4CRNeGttiutjhAmpK7vU2C5k7H7bMEZ5etKwC2GEgUCzmc+eDlfn5CEhBbo3kDiOEkj5B8auzi9+YmZU4p1pVdfYbyyMke7qync4hN2LON3mMIJXW7J4NXFfGTDKznoBYwemu7Ib8DKiNzHXDb++7iaJeI4CSTnO+N86grlWdZ3d/8IY6bPtiFMGCIpKh8zNYYS+P1Iv4TBe6jZOxN1/MBW+2GPryHWAU4O3I0w9OwujxDEFqcQZv1fN8vzorepasTjFMYZ0+6LPx2JADEcaE7E5jDA9EWINwrktOuMquqAPESMNH/JH3CA7gP1RQrauuMFpRFLWa50SR0ZS/YGxSuX9qb43aq3qepFxxTGyyDjXa9AxK2zTmGIuPGdzGCs0Di6F1A5ciMHiuPUgAA8i6y6bkTYyjlU5OumyKrsAikbGQe/2e8lj2XJtK7s3ajgSkPo446dnWpDrUtwIRhanSiJL+4teHN3qcRltECMty0Ynw3q33h4jh0AVF4ItRJN4gYd8tuMpx6kmVQ6gyjRIPKIPXocW4S1IEcOGgx8UB15dyXrJWuX42msZrzWePtGBVK3q+lHjcpLlGCtdxDYdXNuNQ7D5ecgGMVaOaPC67RCfOATlNSrS1vyc2wJhNVeixutx6D9X5Xh6OoykItBY3TbmpeN4+B89yI/fVYdIxapu4h0OSdfAWAl7nvhCxEhY220So/h+B+40Q2n5TyJZ032mjN6I57ejQKhyMEurXBc2quAdkVyMOru6d3B897faxO9NFJBrUoSA/mfpG1VBECmermdJkD/RUYRQpFk61/uZryfhkzgPT3WN46NInvZbiKsQ04DUKx1pa+OkKCdq4CEsJNkLTwmkcMl5driFk0TStGdooeSlqUD8+buwwRUxJtXBDeXlvDSpcHwDaBzru+RHsmW9tR7FChcfjycE5IuyLQ5Jkm+1Dpb2vdZa+4S8LDgat5UsQpKFsqcAR2XHWpevEFOHHOPLDIfjEYqCeSP2EinZ48r05/3GMM6ppq1BdzCKPKR/iXJI7iYYnbAsdHXlJXNMiOzd1rzheOdDEeQb61E0qoS1zfxGk8SRg3L8y//U5O98cpZhVQ3FrUrgWBW71+F/T5X0D96a6qyqobhl8RzlJcTh8T21S74/nSpW1VDcujiOykJQ3yXTuY6huDtK9x9VjNAllSVIMte5ZSjujmKOWXtPmiXIOw+niVU1FHdEjGP2TvDewbG8BHkAWx+G4i6JcsymuKdbgpCtj1uG4i6JcMwLr2EkD8Qu+fRsYijulDDHHJua1SVPnxyfbqvGRjq9/fpyipSksATJ+VUyo23o57z3wAUdHt/T74IY7YDuXZtj9i6I0fZVgONe9sak0bZVjKOZo+6qitjVAzO72Vndy/0BKkOxLLomR0Nxx3UtjobizusaHA3FEmgpR0OxFFrC0VAsiXI5GoqlUQ5HQ7FEyuRoKJZKGRwNxZJJy9FQLJ00HA8ODcXSSeFoKJZSEkdDsaQSOBqKpRXH0VAssRKOhmKpxTgaiiUXcDQUSy/M0VB8BXTv0FB8FfSLobhL+j/hdKMt0JG2eQAAAABJRU5ErkJggg==;" parent="QxBZrPTcEq7WMmQDg-Kl-9" vertex="1">
          <mxGeometry x="190" y="152.94" width="122.71" height="30" as="geometry" />
        </mxCell>
        <mxCell id="QxBZrPTcEq7WMmQDg-Kl-7" value="" style="shape=image;verticalLabelPosition=bottom;labelBackgroundColor=default;verticalAlign=top;aspect=fixed;imageAspect=0;image=data:image/png,iVBORw0KGgoAAAANSUhEUgAAAVwAAACRCAMAAAC4yfDAAAAA0lBMVEX////IAAAQarzLAwNJjM34+v3O3/JwoNavx+lqmtkSbL3///4RbsEAZbxChcrLAACOtN6rx+a/1ewAZ7ubwOa70ev99PT2y8vSLCzXPDz76+vutrbpm5vQAAAAZb3c5/PtqKjqjo7gUVH20NDPFxfeZ2fv9foAYLrj7PfkfX30v7/jgoL++PjVJSX43t7urq58q9iXu+TWQ0Pmk5PZWVnic3P85eUuecSgweLf7fJrndg/h8sueMeIrd5zqtpunNecuuWwxt3bYWHbVFTSMjLeQkLfqRK9AAAJo0lEQVR4nO2biX+iyBLHQaOziXE6agRBVBQ8UMEkHslmJpt94vv//6XXN4eYOfbl2HR957MJVHX3yo+murowmgYAAAAAAAAAAAAAAAAAAAAAAAAAAAAAAAAAAAAAAAAAAAAA/zZq7/0BPjizahGTmjYodBBf5aXelczokx/4PzlX9ctj+k1Nu+kXOAj3Zw8zMWePereamdGfjkb/8x2u8d24bV0cUyfiFjkopfr3az4Br/KNWl/Sg0++lnJd1RL34f7rMfdVrFuRQzZ4nNC5e33kOZukBm8ej6GUuFqlCPzYF9olPPAWdxXUitzA61FTKcM4kS1op7MFyYneEyFfrcir1NS9mraOmeIF7a9p/WWmbdL72PzAR65pZ/0jb0upmFuQLZRKNBVrlV6GJAZXx41aZ2LoQf24k2LZwrezY77hR/62yJHhsVLY+9uMD934WtBp9uKnAYBfo1ZwdLLJP/5/KMak3eRMso6ZcLTlMl8VTduTo95pe7WZpaKqugORM/SrWUdDOoSSlbM6N9VF23Y245he4Vlaq3yvp431S2WjrVzYWzlx28JxmYgrMoR7kdE2s2lB6/uEGi8y1ovcM6EOs/Pnc8Lz+SDraHLH+bnU5omZns+vRBitykZ8EHKHrs9zTFQNC9qJjVOiR1HElKZc7+LBlNX2LVBW3ElDkIuMg8YpHpKWsyNnVWse2dTNFvonFrRGwRaWtqt/TR7+ZEFryS3wZStjKbUu1M0W+iJlyovbbxVzn5riTdHo/owflK65qfRY4qaLmaozd/ZFkMsWql9OMClqdNPON7tpJj1UFffX+Q2lQNzXQ1ltJ7fXnNyyM7g+QaaR7D2ZZFs9VBKfutnCD2sLOfrnKa2avFG9NEgqD+R8+pccoK7ugiZSsYJsoTgVK/Wfk+e8KRpdDrSHVIdWvSkHaF0qW1uYXAlyYaF6dYqbpOVAGiepkTC3ldQAyoaFhF9QoJb7/c9GU5qf1en1XmX8W5k9/TAsyJD5ICx/CMvgKWlUq9zKLg81DcICzRb4EnS8/c2tR7JYnuyAxYLWusD7u9oXUWno35IBprK2oLC4J1IxWVs4fs1TEltlWVugFnlGX+zIXE7dwo3cRNzmNxHSIYtgDbEruP0z3+h6Qr5998DdjaxP2bDwE9f9E7nByw1U1fZ3Ab1eZlBYUGzjpODxVLVRlhMrRxVJGlRqN/SYlR9yLR6rL36aT0a76Pt2UyzMzYl3EMnm9vHoRcUlW+L+JtZ6mx7nWnCrIjTp2l/i/3Gmt+QPTk68gxCZQf0/RLqM7YKJO7tokVcVNGg0+qVMJ6XEnf1RBH54q4WONHj5H+RMPF9r40OuYr6FsglZCliq/h/8poo//vY93B7yVaQiSLZQ6JBfWWIRNdf7WTz0f583+FEz11G1bKHgj/yuT/+RX+mi1CqJl7+NVtYlN8RTIWKjnv0jQKUWtDZb71lyJdZ0li0UJ2Cly69PcvplcwGRLeAt8JkIC7n3RH2lxJ20i8AiVQsd7XazmnpfM8s5pWt2qgVkC78NrGLAm2Kb7nCLcV9ldKWnsx34COkEZL73Z/lsdMtU2HIZ/w531LRzNofD3XaeaWebXddx1h45jlxMV3rImRuxE2+4H90NU/2MVTDG7OmNi1bRq17MB8NlwlJ0PcYWY6tzwkRe12KTW+8RdVb00OU+k7pW5DCKyQPg2NtQSL/qicFsTZuPh0FXUwYsDFVVsNA8n0/kMtLRgrViNr1MwsfdEs92HeE+PTMZA1FxHexH251L1N4vic+Vt04faUaw2Dpb+50u9c2xO+Ti8bSKR5y1TyxIZ3Y9IK08xM8oARMXGw5MJynuAntjb94hnXV9tKQ96W1C5LYs7OHC8hbKiLtmqi2WwrC0qDB62UdMIhfHiZAtdz4DrYS4+pj2EeI6un7oejEq865bTRtnngt3OIyGi3e61DfHONCL3yYWh8XH1c72xlR4HCqHVKpxZAu4uNjokD5M3O4O+etogYLIjtZkwuLkA98Weg8cjjEcD433uti3xqT6+cmDatzROcqW9IAqszJ8nS91EikuIskDF3e49RyfyY0bsPtRJkOUldEzw1o8vgKPLvw8k7J9Is12ThplU2AuLu5Lwi7LFrre6sCWO8KG3rU5HQG5b3Q5Hwsqge4mBpdGBZGLkoipjxZEXD8z+1i2wGYnE/ewsjfEspYtiKqrOxZzR92lpho45OJVPD0pyXqfCOkQd2dEflqZjlhc3AwRB44DJuqtvS1Ow/A/kRlHOmni4BDOdn93K9XktX2SI6HUpmlMzi2hw4q6aSKVCblal5g2tDHuvnTNtY+cHj7ueWLoHlYVBcsYCSxHrdC7NCmpOeWRcyEQ3vFKxA1YkmzBoI7I8ET3aI5Ps2PxXkZkzvkQ80ipybvrEA6prH4bYsNIiDD3O4I9N3X9MAxH1DHGJx3f6uIJGZR5s1DcGIOekZzW2/ohd+5VUndXTiVeFFpWCJOwQCLwgdgO3NQlJxb9GWv4oR9GC38X7MxQR5m62i6VdkSBqC+4b3NdHwKjQ9f0VPVrSBWy5Rl2W9t0rkqyAGTRbGGDZTPdUO/tOj1n6WxQWj6P5cj8zF77NG2wVAq7Mb3kVIEQz1WsiShckURK36/SeS6RlYhL8iuN3YzeDs/tg2lYRFyRM69JV7m8iZwZJYbPz5qKe0hCYUT3rXfsxGTFhR0SUmokT2AzF89vMi3tkIur63NaXRQxhm7NrFSMDfMPyaeHFq2SpxcnAyNqCIgqHp1s5R3fasRUtjliMxcFEZ3fKyYu2f4uukaAE2JSbzdiel/u1kPOOtaVm7lUN3zNSQF7zkuQ2yBGVKCFvAWoM4pjGikOq5HXLbO5vJfi2iiOvJHe2wdjn9V8Aj0NtnSUKTcSeK0cHeLNmBGyXS1Xgy1Bi1xFfW94dzpZ0DBRmYu7wntnNLRXoezruqicht4plViky+C0ODBOxMUzWNTHEsl1392Z5DcTV3OkuGSwcL4L2JRHa81BGWn1g1ITFwfZjZilXDtnGSAhNIpFCrwSr9D0XuCtWZ7LxV3+ly1o9DUPHmQTeeRFmr8SxWGJpdTLSYKxT2IAnbk47m7Iawjkj1LFluV8EVudMBx7ZtzZzDuWdRBZl7mLLcvq0EQgCjpkrXOtIVnXXNxMEitWW2C4ViYsEJNtdrvmLr9ZNQzbJj+NJflhLFMOjDj2uq6psbOlkeItLuUDYpjr8cg6UDrOe3+aT4icZCrVVgAAAAAAAAAAAAAAAAAAAAAAAAAAAAAAAAAAAAAAAAAAAABl+B8WyDKPyR1VXAAAAABJRU5ErkJggg==;" parent="QxBZrPTcEq7WMmQDg-Kl-9" vertex="1">
          <mxGeometry x="80" y="180" width="110.93" height="46.22" as="geometry" />
        </mxCell>
        <mxCell id="QxBZrPTcEq7WMmQDg-Kl-8" value="&lt;b&gt;&lt;font style=&quot;font-size: 15px&quot;&gt;SOURCE systems&lt;/font&gt;&lt;/b&gt;" style="text;html=1;strokeColor=none;fillColor=none;align=center;verticalAlign=middle;whiteSpace=wrap;rounded=0;" parent="QxBZrPTcEq7WMmQDg-Kl-9" vertex="1">
          <mxGeometry x="70" width="180" height="30" as="geometry" />
        </mxCell>
        <mxCell id="_9Qq8a92rPDYBwV9_wCr-3" value="ACCELERATORS " style="swimlane;whiteSpace=wrap;html=1;" parent="1" vertex="1">
          <mxGeometry x="420" y="30" width="690" height="470" as="geometry">
            <mxRectangle x="420" y="30" width="140" height="30" as="alternateBounds" />
          </mxGeometry>
        </mxCell>
        <mxCell id="QxBZrPTcEq7WMmQDg-Kl-45" value="" style="group" parent="_9Qq8a92rPDYBwV9_wCr-3" vertex="1" connectable="0">
          <mxGeometry x="35" y="40" width="620" height="380" as="geometry" />
        </mxCell>
        <mxCell id="QxBZrPTcEq7WMmQDg-Kl-35" value="" style="rounded=0;whiteSpace=wrap;html=1;fontSize=15;" parent="QxBZrPTcEq7WMmQDg-Kl-45" vertex="1">
          <mxGeometry width="620" height="380" as="geometry" />
        </mxCell>
        <mxCell id="QxBZrPTcEq7WMmQDg-Kl-36" value="Cloudformation" style="outlineConnect=0;dashed=0;verticalLabelPosition=bottom;verticalAlign=top;align=center;html=1;shape=mxgraph.aws3.cloudformation;fillColor=#759C3E;gradientColor=none;fontSize=15;" parent="QxBZrPTcEq7WMmQDg-Kl-45" vertex="1">
          <mxGeometry x="30" y="250" width="90" height="90" as="geometry" />
        </mxCell>
        <mxCell id="QxBZrPTcEq7WMmQDg-Kl-37" value="AUTOMATION" style="shape=image;html=1;verticalAlign=top;verticalLabelPosition=bottom;labelBackgroundColor=#ffffff;imageAspect=0;aspect=fixed;image=https://cdn0.iconfinder.com/data/icons/long-shadow-web-icons/512/python-128.png;fontSize=15;" parent="QxBZrPTcEq7WMmQDg-Kl-45" vertex="1">
          <mxGeometry x="20" y="80" width="128" height="128" as="geometry" />
        </mxCell>
        <mxCell id="QxBZrPTcEq7WMmQDg-Kl-39" value="" style="shape=image;verticalLabelPosition=bottom;labelBackgroundColor=default;verticalAlign=top;aspect=fixed;imageAspect=0;image=data:image/jpeg,/9j/4AAQSkZJRgABAQAAAQABAAD/2wCEAAoHCBIUFRYVFBYZFRgaHBUcGBkZGRgaHBgZGBwcHBocGhgcIy4lHCEsHxoYKDgmLC80NTU3HCQ7QDszPy43NjEBDAwMEA8QHBESGDQhGiE0MTQxNDE0NDQxNDQxMTE0PzQxMT8xND80PzQ/MT8xNDQxMTE0MTQ0MTE/NDExMTExMf/AABEIAMsA+AMBIgACEQEDEQH/xAAcAAEAAgMBAQEAAAAAAAAAAAAABgcDBAUIAgH/xABHEAACAQMCAwQFCAgEBAcBAAABAgADBBESIQUGMQdBUWETInGBkTIzNUJicnOyFCM0UoKDs9FDoaKxF5KTwRYkRFTC0uEV/8QAFgEBAQEAAAAAAAAAAAAAAAAAAAEC/8QAGREBAQEBAQEAAAAAAAAAAAAAAAERMSFB/9oADAMBAAIRAxEAPwCvoiJtgiIgIiICIiAiIgIiICIiAiZKFBnZURWdmOFVQWZj5KNzJVQ7OeJMoYrTpk9Feoob4KGH+cCIxOnxngF1ZkC4pMgJwr7Mjex1yM+R38pzICIiAiIgIiICIiAiIgIiICIiAiIgIiICIiAiIgIiICInV4Dy/dXr6bdNQB9d29VE+83j5DJ8oHKJkn4NydVqJ6e5cWdsNzUqbMw+wh657ifdmdEV+G8N+b08Quh9c/MUmH7o31EeWT13XpIxxnjdzdvruHLn6q9ETyRBsP8AfxJgSK55qoWqtR4VT9HkYa6qANVf7oPyRnxHj6o6yHXTtVYvVJqOerOS7H+JsmfMQJFwLm65t1NJ8XNu2zUK3rrp8EJyV9m6+XfOo/Llnfgvw2poqYy9pVbBHj6Nz1HvI816SEz6R2UhlJVgcqwJBB8QRuDAyXlpUos1OqjU3XqrjBHn5jzG0wyZWfOFOugocTpfpCDZay4Fan55GNXuwfHVNfivJrhP0iycXtv4pvUTHUOg3JHfgZ8VECKxAMQEREBERAREQEREBERAREQEREBERAREQEExO7yVYLXvbem4yurUw8RTUvj2EqB74HVsuXrW1pJccSZsuNVK1TZ3HcXOQVHTbIx3nO05/Hubq9wvoUC21sBhaFL1VK+DsANXs2G/Q9Zp81cTa5u69Vjn12VB+6iEqgHuGfaTOTAREQEREBERATd4VxWvbP6S3qNTfbOOjAdzqdmHXqO/aaUyUKLuyois7scKqgszHwCjcwJql7w/ihC3Ciyu22FamP1VVzsNanoSfHfp63dIpxjhVW1rNQrLpZfDoynoynvB/uO6TngPZXUqJrvKho5G1OnpZh99zlQfIA+3umftM4K1KztXd/S1KTGj6QjDPTZWZNX2hoAz3kk9+JNaVjERKyREQEREBERAREQEREBERAREQEREBJV2afSVD+b/AE3kVkq7NPpKh/N/pvJRG775yp99/wAxmGZr75yp99/zGYZQiIgIiICJu8K4VXuXFOgjVH2zjoo8XY7KPMy2OVuzehQxUusXFTYhP8JD5A/LPm23kJNXEC5W5Jur3D49DRP+Iw+UPsL1b27Dzlxcvcr2tkuKKesRhqjbu3tbuHkMCdwCfsmrhID2w/sKfj0/yVJPpAe2H9hT8en+SpEKpaIiaZIiICIiAiIgIiICIiAiIgIiICIiAkq7NPpK3/m/03kVkq7NPpK3/m/03kqxG775yp99/wAxmGZr75yp99/zGYZUIiICd3lDl9r64WlkqgBeow6qgIGB9okgD3nfGJwpZXYsP1t19yj+Z/7SVYs3hPCqFtTFOggRR3DqT4serHzM35+xMtODzbx4WND02jWS6oBnAy2d2PgADN7hfF7e5VmoVFqhW0sVOQGwDjPsI+MgnFKZ4txGpZvUZLa2AYqhANSpsCd/AsV6baT3tkTbgPA6FnTNKgpVCxY5YsSxAGcnyAlR1ZAe2H9hT8en+SpJ9ID2w/sKfj0/yVIhVLRETTJERAREQEREBERAREQEREBERAREQElXZp9JUP5v9N5FZ2+TeIrb3tvVY4UNpY+CupQk+Q1Z90DlX3zlT77/AJjMM7PN3CntrutTYbF2dD3MjkspHj1I9qmcaAiIgJZfYr87dfco/meVpLL7Ffnbr7lH8zyVYtyIiZaVhzJ2b1q1xUuLesqa2LlW1qVZvlYZc5BOT5Zmfsou7km7oV2ZxRdFGpi+lsurqrHuygOP7zW5s7QLqjUr0aFAKqNoFdgxwcDJwQFB1asZJ6ZwZLuTOX/0K30s2uq7F6r7nU7eBO5AG2e/c98vxEjkB7Yf2FPx6f5Kkn0rHtl4iop0LcH12Y1CPBVVlGfaXOPumIVU0RE0yREQEREBERAREQEREBERAREQEREBERAl/DOZbevSW14kjOq7UrhPnaQ7ge9lGB49BkHrNfjPJ1Wknp7dlu7Y7ipT3ZR9tBuMd5HvxIxOjwXjdzaPrt3KH6y9UfydDsfb18CIHOBiTc1eG8S+Xp4fdn6w3oVWP7w20kn2HJG79JHeO8v3Vk+m4TSD8l19ZG+63/Y4PlA5UsvsV+duvuUfzPK0ll9ivzt19yj+Z5KsW5ET8zMtNDivC6NygSsutAytpJIBZc4zjqN+nSb4nE5g5ltbJdVd8EjKovrO/wB1fDzOAPGVFzPz9dXepEJt6J20KfXYfbfr/CMDxzLImrD5o7Qba11JSxXrDbSp9RD9tx+UZPslNcU4jVuarVqza3Y7noAB0VR3KO4TTAiXEtIiJUIiICIiAiIgIiICIiAiIgIiICIiAiIgIiICSPgPN9e3T0NRVubYjDUavrAL4Ixzp9m48h1kciBNqvLVpfKanDKmlwMvaVTh18dDE7j3kfaHSdHssL2t1Wo3CPReoqBQ6lcsjE6QTsSQxxjriV1TdkYMjFWU5VlJBU+II3Bkmtuf+JooX0+rHQsiMw/iK5PvzI0va8vKdFDUquqIvVmIAHvMq/mjtQZtVOxGkbg1nG/8CHp7W+EgHFeM3N0wavVeoR0BICr91Vwq+4TQiRLWSvXd2Z3ZndjlmYlmY+ZO5mOIlQiIgIiICIiAiIgIiICIiAiIgIiICIiBkShUYZVGYeIViPiBPv8ARan7j/8AI39pf/IqgcPtMbfqkPvO5/zndZwOpA9pk1ceXqqFflgrnpqBGfjPmeoalNHBDAOD1BAI+BkE5t7OresjVLRBRrAEhV2p1O/To6KT+8Meee5pimYn6ykEggggkEHqCNiCPHM/JUfSIzHCgsfAAk/AT9qU2X5SsuemoEZ+Mtjsb4XppVrlhvUYIh+xT+UR7XJB+4J3O0zhXp7GowGWpEVV8cL8vH8Bb4CTVxRERBMqE2LWwrVd6VKpUHiiO4+Kgy1ORez+miJcXiB3YBkpMMrTU7jUp+U3fg7DpjIzLBq1qdJQWZKajYaiEA8hnaTVx5purKtS+dpPT++jp+YCYJ6dSpSrKdLJUQ7HBVlPl3gyuOfOz+mEa5s00MgLPSX5LKOrU1+qwG+kbHGwz1aYqpVJOACSegG5Pun29B1GWRlHiVIHxIku7KADxBe/9XVI8j6oyPcT8ZaXPig8Pus7/q2O/iMEH4xpjz3P0DOw3J2HmT3T8kn7NlB4lbZGd6x94o1JUR17eooyyOo8SrAfEiYp6P5qUGyugd/1Nbr9wzzgJJVsIiJUIiICIiAiIgIiICIiB6I5F+j7T8JP9pVvbAoPEFyAf/L0eo+3Wlpci/R9p+En+0w8e5Ms7yqK1dXLhVTKuyjSpYjYebGYaUPwziVe2dXt3ZHBBCrnDnuVkHywemPOemaZJAJGDgZHgfCRzhHI/D7VxUp0s1BurOzOVPioY4U+YGZvczcXNpbPXWm1UqNlUbAn6zn6qDqT3CW+k8UfzyirxC6C9PSZ28WVWb/UWnCVSSAoyTgADvJ2A+MyXNw9R3qOdTuzMx8WY5P+Zki7O+F/pF9SBGUp5qv4epjT/rKfAzSLt5e4aLa2o0B9RFDHxbq597Fj75vVaaupVhkMCCPEEYImjzDxIW1tWrn/AA0ZlHi2MKvvYqPfON2bcTNxY0tTFnp5puScklPkk+1CpmGlI8YsDb16tButNmX2qD6p966T75+cGpq1zbq/yWrUQ33S6g592ZNO17hmi5p1wPVrLhvv08DJ9qlf+UyvwSNwcHuI6jzBmmXqYTztztcV6l9cenzqR3VFbolMH9XpHcCuk7dc5lscj84072mqVGC3CjDodtePrp4g969VPlgnscb5btLwAXFIMRsHBKso8Ay4OPLpJPFvqiuVONPZ3NOorFULKKq59VkJAbUOhIGSD3ET0OLqmRkOpB6esMEfGVjxjso6taV/HFOsBv5Coo296n2yueK8HrWz+jr0jTfqMgYYeKsNmHmDL1OJryBSROMVkpkFF/SwmnppDgLjHdjEsbnz6Pu/wnlWdk30gv4VX/4y6OKWCXFJ6NTOh1Ktg4OD4HukvVnHmSSns1+krb+d/RqSxv8Ahfw3wq/9T/8AJucH5CsrWslel6TWmrTqfI9ZSpyMeDGNTHV5p/Yrr8Gt+QzzeJ6R5p/Yrr8Gt+QzzcIhSIiaQiIgIiICIiAiIgIiIHojkX6PtPwk/wBpEO0HnK8s7sUaDIE9FTf1k1HUz1Ad89MIJL+Rfo+0/CT/AGld9qXCLqrfBqVCrUX0FIakpu41B6pIyBjOCNvMTMavGvY9qV8rg1Up1U+soUo2PssCQD7RLf4deU7iilVN0qKrLkYOlhnBHcd9xKD4fybxGs4VbZ0z1aoppovmSwyR7AT5S9+B8OFtb0aAbV6NFXURjUQNzjuycnEUijOfeDpaXrogwjhaiKOihs5UeQYNjyxJ32O8L0UKtwRvUbSp+xT6/Fyw/hkS7UbwV79kp+saapSwPrPlmKjzy4X2gy5OA8OFtb0aA/w0VSfFsZY+9iT74vCda3NHAhfUPQNUampZGYoAS2ncA57tWk/wianKPKqcPFRUqtUWoVJDhRpZcjIx4gj4CRjj/ac1C4q0adulRabadZqMpYgDVsEOMNqHXumnQ7W3LoGtkVCyh2FViVUkamA0b4GTiMpsSntO4X6exqMBlqJFVfYuQ/8AoZ/gJRlCi7sERWdjsqopZifJRuZ6dqIrqQd1YEEdxBH9pRPLpHD+KolQ4WnVekzH91wVRifPUjE+BMsqVxKnB7ymNbW9dAnrazSqKEx9bXpGnHjJDwbtGv7cBXZbhB3VPl48qi7+9gZeFxRV1ZG3VlZWHiGGD/kZ594/yhd2jsrU6lRAToqIpdWXuJ0j1TjqD356jeJdMxanLPaDa3jrSYNQqtsquQVc+COO/wAiBnuzO5zHwOle0Wo1B13RvrI3cy/9x3jIlJcscsXdxXp6aVREV0ZqjqyKoVgSQWA1HbYDvx06z0JJVikezCg1PiZRhh0S4Rh4MjKrY94Mtjmi/e3tK9anjXTRmXUCVyPEAjI98rXku5Srxuu6YKsboqR0K6xhh7Rv75YHPn0fd/hPF6TisP8AijxLwof9N/8A7ztcm8+X11eUaFX0Wh/SatFNlb1absMEucbqO6VdJT2a/SVt/O/o1JbElXRzT+xXX4Nb8hnm4T0hzT+xXX4Nb8hnm8SQpERNIREQEREBERAREQEREC9eSuPWa2NsjXFJGWmqsrVEVgV2IIJzO7/4hsf/AHVD/rU/7zz7/wDyanofT6qXo84+ep6tWktp0atWvSCdOMz4qcLqqXBUZQ0Fb1l2NddVPv71+HfJi6v+vzTw9Blrqh7qiMfcFJJkI5o7T00tTsgWY7emcaQvmiHdj5kAe2VrxDh70GKu1MsGZWVKiOUZTghwpOk5z18DPmwsalZmVNI0ozsXdUVUTGolmIA6iMNdbkkUmvqD3Dqiq7OWqHAZ1BZMu3Q69JyeuPOXRxTmuzpUalRbii7KrFVWojMzAeqAoOTk4lFU+BXDO9PSqsmjUWqU1T9Z82A5bS2vI04O/unxb8HruVVU3ao9IAlQfSU1DOpBO2Ae+DWk7sxLMcsxJY+JJyT8cz5M6CcIrGiK4ClCjuBrTX6NGKO/o869IYEE426xccGuEUuy6VC0Gzld0uNXoyN986W9mN5UXHyVzVbVLOj6avTSoihHD1EViU9UNhjvqUA585X3ai9s92tShUSprprr0MrAMpKjJG2SuNvsyM8R4a9BitRqZcEqypUR2Vl6hlViV98wWtu9R0poNTuyqo8WY4G/d7ZMXVi8m9o/olFC91Mq4CVgCzBR0FRerY/eG/iO+WTZcdtKwBpXFN/Y6596k5HvE890OE1neomFQ0yVqF3SmqNq0AM7ELktsB3z4ThNZzWATJoKzVQceoFbS3t3z0z0J7ow16IveN2lEZq16aY/edQfcM5MrjnTtGWojULLVhgVesQVOk7EUwdxnpqOPLxFfUuFu1Fq6mmEUhWy6Bgx1FRoJ1EkKxAxvpMyXHBrhE1smE0UamcrulYlUI33yQQR1HfiMNdzs0vKVG+VqrrTX0dRdTEKuTpwCTsOhlkc78es2sblVuKTsyFVVKisxZsAABTmUfb0Hd1RFLO7KqqOpZjgD4zbrcHrKeiMNFWpqR0dSlEE1MMpIyuk5Xr8Yw1oSRcgXVOlxC3eoyogNQFmICjVTdRknpuQPfObS4RVbPyEC06dUs9REUJV06CWYgb6lGOu813s3CM/qsiutMsrKwLsrMNJB9YEIxyNpUXrzPzBZmzuFW4oszUqiqq1EZizKQAFByTkiUFM9S1dUSoRhKhcIcjcoVD7dRjUOswSSLaRESoREQEREBERAREQEREDc/TB+jGhg5NYVNWdsBCmnHjvmda/5maqrowOgvaMi+r6n6OmlxkDJ1HffpI7EDtcycWS5c1FNTdnbS/o8KHOrShRQSB9rJ2Ew8v8SW3d3YPh6bplNOpS+n1hrBU4x3icuIEircepVHrmrTcpVa3Y6XUOXt1Kgs2nT6wZ9WAMZGOkWnMiqzVHpsz/AKRcXFPSwCa66lWVwQSVBwRjfbEjsQO5T49i1FtoOkUaiaxpD62rGqpD41aCDoZM4OczYv8Amf0tu1Aof/SaGyMqKCIrr5qzLqHhqbxkbiTB3OYuMpcVPSp6TOp2C1PRMihiG0qFUahkD5WekwWHGClX0zojsqOqAIlNA7qVDMtMLkAM3TB6bjE5USiRHmCm1Ss70yFrC3Zwmg4q0Mesq1AysjHXlWyfW67b/dhzLTpNUK2yaatYu6ZIC0SjIKaaSoB0vU3II3G20jUQOpQvKC2tSgVqF3dHDApoBpq6oCMZwRUOfYMTeveZvSWzWxQ40Wqo2d19CqB/arFFIHcc+MjsQM1pVCOjsCwVlYgMUJwc7Ou6nwI6TuVuY1FQVaaPrFG4Q1X9Hrd6qsqPU0KFbRqG5GSM5kdiBJqHM41u7ioGehb0i6ej1hqRUswDKVw2g7Y2zNGnxC3NOrSqLWKvWWqrK1MP6qOmHBXTv6QnYDpOPEDqte0HtqdJ1qa6ZrlGQpoPpCpGsMM7FB08ZyoiAiIgIiICIiB//9k=;" parent="QxBZrPTcEq7WMmQDg-Kl-45" vertex="1">
          <mxGeometry x="440" y="80" width="158.82" height="130" as="geometry" />
        </mxCell>
        <mxCell id="QxBZrPTcEq7WMmQDg-Kl-40" value="CDK" style="shape=image;html=1;verticalAlign=top;verticalLabelPosition=bottom;labelBackgroundColor=#ffffff;imageAspect=0;aspect=fixed;image=https://cdn0.iconfinder.com/data/icons/long-shadow-web-icons/512/python-128.png;fontSize=15;" parent="QxBZrPTcEq7WMmQDg-Kl-45" vertex="1">
          <mxGeometry x="160" y="80" width="128" height="128" as="geometry" />
        </mxCell>
        <mxCell id="QxBZrPTcEq7WMmQDg-Kl-41" value="TESTING" style="shape=image;html=1;verticalAlign=top;verticalLabelPosition=bottom;labelBackgroundColor=#ffffff;imageAspect=0;aspect=fixed;image=https://cdn0.iconfinder.com/data/icons/long-shadow-web-icons/512/python-128.png;fontSize=15;" parent="QxBZrPTcEq7WMmQDg-Kl-45" vertex="1">
          <mxGeometry x="300" y="80" width="128" height="128" as="geometry" />
        </mxCell>
        <mxCell id="QxBZrPTcEq7WMmQDg-Kl-43" value="AWS DMA TOOLS: DMA, SCT, other" style="text;html=1;strokeColor=none;fillColor=none;align=center;verticalAlign=middle;whiteSpace=wrap;rounded=0;fontSize=27;fontColor=#0000FF;" parent="QxBZrPTcEq7WMmQDg-Kl-45" vertex="1">
          <mxGeometry x="148.82000000000005" y="278.5" width="450" height="30" as="geometry" />
        </mxCell>
        <mxCell id="QxBZrPTcEq7WMmQDg-Kl-44" value="ACCELERATORS for &lt;br&gt;Assessments, Migrations" style="text;html=1;strokeColor=none;fillColor=none;align=center;verticalAlign=middle;whiteSpace=wrap;rounded=0;fontSize=27;fontColor=#0000FF;fontStyle=1" parent="QxBZrPTcEq7WMmQDg-Kl-45" vertex="1">
          <mxGeometry x="8.819999999999993" y="20" width="590" height="30" as="geometry" />
        </mxCell>
      </root>
    </mxGraphModel>
  </diagram>
</mxfile>
